<?xml version="1.0" encoding="utf-8"?>
<svg version="1.1" xmlns:xlink="http://www.w3.org/1999/xlink" width="17px" height="17px" xmlns="http://www.w3.org/2000/svg">
  <g transform="matrix(1 0 0 1 -631 -953 )">
    <path d="M 17 8.5  C 17 13.194549999999992  13.19455000000005 17  8.5 17  C 3.8054499999999507 17  0 13.194549999999992  0 8.5  C 0 3.8054500000000075  3.8054499999999507 0  8.5 0  C 13.19455000000005 0  17 3.8054500000000075  17 8.5  Z M 8.5 15.300000000000011  C 12.255536298849393 15.300000000000011  15.299999999999955 12.255536298849393  15.299999999999955 8.5  C 15.299999999999955 4.7444637011506074  12.255536298849393 1.6999999999999886  8.5 1.6999999999999886  C 4.7444637011506074 1.6999999999999886  1.7000000000000455 4.7444637011506074  1.7000000000000455 8.5  C 1.7000000000000455 12.255536298849393  4.7444637011506074 15.300000000000011  8.5 15.300000000000011  Z M 8.5 12.75  C 6.622231850575304 12.75  5.099999999999909 11.22776814942469  5.099999999999909 9.350000000000023  L 11.900000000000091 9.350000000000023  C 11.900000000000091 11.22776814942469  10.377768149424696 12.75  8.5 12.75  Z M 5.099999999999909 7.649999999999977  C 4.395836943965719 7.649999999999977  3.8250000000000455 7.079163056034275  3.8250000000000455 6.375  C 3.8250000000000455 5.670836943965725  4.395836943965719 5.100000000000023  5.099999999999909 5.100000000000023  C 5.8041630560343265 5.100000000000023  6.375 5.670836943965725  6.375 6.375  C 6.375 7.079163056034275  5.8041630560343265 7.649999999999977  5.099999999999909 7.649999999999977  Z M 11.900000000000091 7.649999999999977  C 11.195836943965674 7.649999999999977  10.625 7.079163056034275  10.625 6.375  C 10.625 5.670836943965725  11.195836943965674 5.100000000000023  11.900000000000091 5.100000000000023  C 12.604163056034281 5.100000000000023  13.174999999999955 5.670836943965725  13.174999999999955 6.375  C 13.174999999999955 7.079163056034275  12.604163056034281 7.649999999999977  11.900000000000091 7.649999999999977  Z " fill-rule="nonzero" fill="#333333" stroke="none" transform="matrix(1 0 0 1 631 953 )" />
  </g>
</svg>