<?xml version="1.0" encoding="utf-8"?>
<svg version="1.1" xmlns:xlink="http://www.w3.org/1999/xlink" width="15px" height="15px" xmlns="http://www.w3.org/2000/svg">
  <g transform="matrix(1 0 0 1 -717 -954 )">
    <path d="M 13.333333333333371 5.833333333333343  L 8.333333333333371 5.833333333333343  L 8.333333333333371 9.166666666666657  L 13.333333333333371 9.166666666666657  L 13.333333333333371 5.833333333333343  Z M 6.666666666666629 9.166666666666657  L 6.666666666666629 5.833333333333343  L 1.6666666666666288 5.833333333333343  L 1.6666666666666288 9.166666666666657  L 6.666666666666629 9.166666666666657  Z M 8.333333333333371 10.833333333333343  L 8.333333333333371 13.333333333333343  L 13.333333333333371 13.333333333333343  L 13.333333333333371 10.833333333333343  L 8.333333333333371 10.833333333333343  Z M 1.6666666666666288 13.333333333333343  L 6.666666666666629 13.333333333333343  L 6.666666666666629 10.833333333333343  L 1.6666666666666288 10.833333333333343  L 1.6666666666666288 13.333333333333343  Z M 13.333333333333371 1.6666666666666572  L 8.333333333333371 1.6666666666666572  L 8.333333333333371 4.166666666666657  L 13.333333333333371 4.166666666666657  L 13.333333333333371 1.6666666666666572  Z M 6.666666666666629 4.166666666666657  L 6.666666666666629 1.6666666666666572  L 1.6666666666666288 1.6666666666666572  L 1.6666666666666288 4.166666666666657  L 6.666666666666629 4.166666666666657  Z M 0 0.8333333333333428  C 0 0.37309604180768474  0.37309604180768474 0  0.8333333333333712 0  L 14.166666666666629 0  C 14.626903958192315 0  15 0.37309604180768474  15 0.8333333333333428  L 15 14.166666666666657  C 15 14.626903958192315  14.626903958192315 15  14.166666666666629 15  L 0.8333333333333712 15  C 0.37309604180768474 15  0 14.626903958192315  0 14.166666666666657  L 0 0.8333333333333428  Z " fill-rule="nonzero" fill="#333333" stroke="none" transform="matrix(1 0 0 1 717 954 )" />
  </g>
</svg>