<?xml version="1.0" encoding="utf-8"?>
<svg version="1.1" xmlns:xlink="http://www.w3.org/1999/xlink" width="18px" height="14px" xmlns="http://www.w3.org/2000/svg">
  <g transform="matrix(1 0 0 1 -59 -829 )">
    <path d="M 13.079584775086525 0  L 14.823529411764705 0  L 14.823529411764705 9.882352941176464  L 17.439446366782036 9.882352941176464  L 13.951557093425675 14  L 10.463667820069197 9.882352941176464  L 13.079584775086525 9.882352941176464  L 13.079584775086525 0  Z M 0 11.529411764705884  L 7.847750865051868 11.529411764705884  L 7.847750865051868 13.176470588235304  L 0 13.176470588235304  L 0 11.529411764705884  Z M 0 5.764705882352928  L 9.591695501730166 5.764705882352928  L 9.591695501730166 7.411764705882348  L 0 7.411764705882348  L 0 5.764705882352928  Z M 0 0  L 9.591695501730166 0  L 9.591695501730166 1.6470588235294201  L 0 1.6470588235294201  L 0 0  Z " fill-rule="nonzero" fill="#cccccc" stroke="none" transform="matrix(1 0 0 1 59 829 )" />
  </g>
</svg>