<?xml version="1.0" encoding="utf-8"?>
<svg version="1.1" xmlns:xlink="http://www.w3.org/1999/xlink" width="15px" height="15px" xmlns="http://www.w3.org/2000/svg">
  <g transform="matrix(1 0 0 1 -503 -954 )">
    <path d="M 4.166666666666686 2.5  L 4.166666666666686 1  L 15 1  L 15 2.5  L 4.166666666666686 2.5  Z M 1.25 2.916666666666657  C 0.5596440627115271 2.916666666666657  0 2.3570226039551585  0 1.6666666666666572  C 0 0.9763107293781843  0.5596440627115271 0.4166666666666572  1.25 0.4166666666666572  C 1.940355937288473 0.4166666666666572  2.5 0.9763107293781843  2.5 1.6666666666666572  C 2.5 2.3570226039551585  1.940355937288473 2.916666666666657  1.25 2.916666666666657  Z M 1.25 8.75  C 0.5596440627115271 8.75  0 8.190355937288501  0 7.5  C 0 6.809644062711499  0.5596440627115271 6.25  1.25 6.25  C 1.940355937288473 6.25  2.5 6.809644062711499  2.5 7.5  C 2.5 8.190355937288501  1.940355937288473 8.75  1.25 8.75  Z M 1.25 14.5  C 0.5596440627115271 14.5  0 13.940355937288501  0 13.25  C 0 12.559644062711499  0.5596440627115271 12  1.25 12  C 1.940355937288473 12  2.5 12.559644062711499  2.5 13.25  C 2.5 13.940355937288501  1.940355937288473 14.5  1.25 14.5  Z M 4.166666666666686 8.333333333333343  L 4.166666666666686 6.666666666666657  L 15 6.666666666666657  L 15 8.333333333333343  L 4.166666666666686 8.333333333333343  Z M 4.166666666666686 14  L 4.166666666666686 12.5  L 15 12.5  L 15 14  L 4.166666666666686 14  Z " fill-rule="nonzero" fill="#666666" stroke="none" transform="matrix(1 0 0 1 503 954 )" />
  </g>
</svg>