<?xml version="1.0" encoding="utf-8"?>
<svg version="1.1" xmlns:xlink="http://www.w3.org/1999/xlink" width="18px" height="15px" xmlns="http://www.w3.org/2000/svg">
  <g transform="matrix(1 0 0 1 -586 -954 )">
    <path d="M 4.331000000000003 14.5  C 3.2580000000000027 14.5  2.232000000000003 14.010000000000002  1.5830000000000002 13.321000000000002  C 0.5529999999999999 12.227  0 11  0 9.011  C 0 5.510999999999999  2.457 2.3739999999999997  6.030000000000001 0.8229999999999986  L 6.923000000000002 2.2009999999999987  C 3.588000000000002 4.004999999999999  2.9360000000000017 6.345999999999998  2.676000000000002 7.821999999999999  C 3.213000000000002 7.543999999999999  3.916000000000002 7.446999999999999  4.605000000000002 7.510999999999999  C 6.4090000000000025 7.677999999999999  7.831000000000003 9.158999999999999  7.831000000000003 11  C 7.831000000000003 12.932996624407775  6.263996624407778 14.5  4.331000000000003 14.5  Z M 14.331 14.5  C 13.258 14.5  12.232 14.010000000000002  11.582999999999998 13.321000000000002  C 10.553 12.227  10 11  10 9.011  C 10 5.510999999999999  12.457 2.3739999999999997  16.03 0.8229999999999986  L 16.923000000000002 2.2009999999999987  C 13.588000000000001 4.004999999999999  12.936000000000002 6.345999999999998  12.676000000000002 7.821999999999999  C 13.213000000000001 7.543999999999999  13.916 7.446999999999999  14.605 7.510999999999999  C 16.409 7.677999999999999  17.831 9.158999999999999  17.830999999999996 11  C 17.830999999999996 12.932996624407775  16.263996624407774 14.5  14.331 14.5  Z " fill-rule="nonzero" fill="#666666" stroke="none" transform="matrix(1 0 0 1 586 954 )" />
  </g>
</svg>