<?xml version="1.0" encoding="utf-8"?>
<svg version="1.1" xmlns:xlink="http://www.w3.org/1999/xlink" width="12px" height="15px" xmlns="http://www.w3.org/2000/svg">
  <g transform="matrix(1 0 0 1 -175 -954 )">
    <path d="M 1.8749999602924419 1.875  L 1.8749999602924419 6.5625  L 6.0937498709504325 6.5625  C 7.388167225953993 6.5625  8.437499821315981 5.513167382415929  8.437499821315981 4.21875  C 8.437499821315981 2.9243326175840707  7.388167225953993 1.875  6.0937498709504325 1.875  L 1.8749999602924419 1.875  Z M 9.146249806306514 7.130625000000009  C 10.448750554529553 7.884855679740553  11.25050457447442 9.276134743814367  11.249999761754637 10.78125  C 11.249999761754637 13.111201288348667  9.36120109010308 15  7.031249851096646 15  L 0 15  L 0 0  L 6.0937498709504325 0  C 8.423632071190298 9.763020000264078E-05  10.312323001259443 1.8888677446699946  10.312323001259443 4.21874999629614  C 10.312323001259443 5.303168518931756  9.894739553920033 6.345942512477848  9.146249806306514 7.130625000000009  Z M 7.031249851096646 8.4375  L 1.8749999602924419 8.4375  L 1.8749999602924419 13.125  L 7.031249851096646 13.125  C 8.32566720610022 13.125  9.374999801462195 12.07566738241593  9.374999801462195 10.78125  C 9.374999801462195 9.48683261758407  8.32566720610022 8.4375  7.031249851096646 8.4375  Z " fill-rule="nonzero" fill="#333333" stroke="none" transform="matrix(1 0 0 1 175 954 )" />
  </g>
</svg>