<?xml version="1.0" encoding="utf-8"?>
<svg version="1.1" xmlns:xlink="http://www.w3.org/1999/xlink" width="15px" height="15px" xmlns="http://www.w3.org/2000/svg">
  <g transform="matrix(1 0 0 1 -846 -954 )">
    <path d="M 8.25 4.5  L 2.870999999999981 4.5  L 4.773000000000025 6.401999999999987  L 3.7124999999999773 7.462500000000006  L 0 3.75  L 3.7124999999999773 0.037499999999994316  L 4.773000000000025 1.0980000000000132  L 2.870999999999981 3  L 8.25 3  C 11.563708498984738 3  14.25 5.6862915010152335  14.25 9  C 14.25 12.313708498984766  11.563708498984738 15  8.25 15  L 1.5 15  L 1.5 13.5  L 8.25 13.5  C 10.735281374238525 13.5  12.75 11.485281374238582  12.75 9  C 12.75 6.514718625761418  10.735281374238525 4.5  8.25 4.5  Z " fill-rule="nonzero" fill="#666666" stroke="none" transform="matrix(1 0 0 1 846 954 )" />
  </g>
</svg>