<?xml version="1.0" encoding="utf-8"?>
<svg version="1.1" xmlns:xlink="http://www.w3.org/1999/xlink" width="13px" height="15px" xmlns="http://www.w3.org/2000/svg">
  <g transform="matrix(1 0 0 1 -336 -954 )">
    <path d="M 1.5789473684210407 0  L 3.1578947368420813 0  L 3.1578947368420813 7.10526315789474  C 3.1578947368420813 8.849320262623564  4.571732368955395 10.26315789473685  6.3157894736842195 10.26315789473685  C 8.059846578413044 10.26315789473685  9.473684210526358 8.849320262623564  9.473684210526358 7.10526315789474  L 9.473684210526358 0  L 11.052631578947398 0  L 11.052631578947398 7.10526315789474  C 11.052631578947398 9.721348814987977  8.931875130777428 11.84210526315789  6.3157894736842195 11.84210526315789  C 3.699703816591011 11.84210526315789  1.5789473684210407 9.721348814987977  1.5789473684210407 7.10526315789474  L 1.5789473684210407 0  Z M 0 15  L 0 13.42105263157896  L 12.631578947368439 13.42105263157896  L 12.631578947368439 15  L 0 15  Z " fill-rule="nonzero" fill="#333333" stroke="none" transform="matrix(1 0 0 1 336 954 )" />
  </g>
</svg>