<?xml version="1.0" encoding="utf-8"?>
<svg version="1.1" xmlns:xlink="http://www.w3.org/1999/xlink" width="16px" height="15px" xmlns="http://www.w3.org/2000/svg">
  <g transform="matrix(1 0 0 1 -674 -954 )">
    <path d="M 15.00631578947366 14  L 2.232631578947462 14  L 2.216842105263254 14.226315789473688  L 2.200263157894824 14.21052631578948  L 0.7831578947369735 14.21052631578948  C 0.3505040592289106 14.210090611806748  0 13.859233002264148  0 13.426578947368426  L 0 0.7839473684210532  C 0.003006176141980177 0.3525438504229328  0.3517576246048293 0.0034408379999035787  0.7831578947369735 0  L 15.00631578947366 0  C 15.438947368421054 0  15.78947368421052 0.3513157894736878  15.78947368421052 0.7839473684210532  L 15.78947368421052 13.426578947368426  C 15.786467508068654 13.857982465366547  15.437716059605691 14.207085477789548  15.00631578947366 14  Z M 9.473684210526358 4.73684210526315  L 14.21052631578948 9.4736842105263  L 14.21052631578948 1.5789473684210407  L 1.5789473684211544 1.5789473684210407  L 1.5789473684211544 12.63157894736841  L 9.473684210526358 4.73684210526315  Z M 14.21052631578948 12.63157894736841  L 14.21052631578948 11.706315789473678  L 9.473684210526358 6.969473684210527  L 3.8115789473685027 12.63157894736841  L 14.21052631578948 12.63157894736841  Z M 4.736842105263236 6.3157894736842195  C 3.864813552898795 6.3157894736842195  3.157894736842195 5.608870657627563  3.157894736842195 4.73684210526315  C 3.157894736842195 3.8648135528987386  3.864813552898795 3.1578947368421098  4.736842105263236 3.1578947368421098  C 5.608870657627676 3.1578947368421098  6.315789473684276 3.8648135528987386  6.315789473684276 4.73684210526315  C 6.315789473684276 5.608870657627563  5.608870657627676 6.3157894736842195  4.736842105263236 6.3157894736842195  Z " fill-rule="nonzero" fill="#666666" stroke="none" transform="matrix(1 0 0 1 674 954 )" />
  </g>
</svg>