<?xml version="1.0" encoding="utf-8"?>
<svg version="1.1" xmlns:xlink="http://www.w3.org/1999/xlink" width="17px" height="15px" xmlns="http://www.w3.org/2000/svg">
  <g transform="matrix(1 0 0 1 -759 -954 )">
    <path d="M 0 14.172500000000014  L 0 0.8274999999999864  C 0.0031731859277215335 0.37212961989087034  0.37129971486069735 0.0036319956665806785  0.8266666666668243 0  L 15.839999999999918 0  C 16.296666666666624 0  16.66666666666663 0.3708333333333371  16.66666666666663 0.8274999999999864  L 16.66666666666663 14.172499999999985  C 16.66349348073902 14.62787038010913  16.295366951806045 14.99636800433342  15.839999999999918 15  L 0.8266666666668243 15  C 0.3699765069638943 14.999540090240458  0 14.629190391278826  0 14.172500000000014  Z M 7.185000000000059 4.512499999999989  C 7.130223161842878 4.475953425691841  7.065848910648356 4.456449735456459  6.999999430072194 4.456449735456459  C 6.816145187531788 4.456449735456459  6.6670066511030655 4.605312738477181  6.6666666666667425 4.7891666666666595  L 6.6666666666667425 10.21083333333334  C 6.6670066511030655 10.394687261522819  6.816145187531788 10.54355026454354  6.999999430072194 10.54355026454354  C 7.065848910648356 10.54355026454354  7.130223161842878 10.524046574308159  7.185000000000059 10.487500000000011  L 11.25083333333339 7.7775000000000025  C 11.34369610271176 7.715700240308877  11.399491651813264 7.611546870124243  11.399491651813264 7.5  C 11.399491651813264 7.388453129875785  11.34369610271176 7.284299759691123  11.25083333333339 7.222499999999997  L 7.18416666666667 4.512499999999989  Z " fill-rule="nonzero" fill="#333333" stroke="none" transform="matrix(1 0 0 1 759 954 )" />
  </g>
</svg>