<?xml version="1.0" encoding="utf-8"?>
<svg version="1.1" xmlns:xlink="http://www.w3.org/1999/xlink" width="17px" height="15px" xmlns="http://www.w3.org/2000/svg">
  <g transform="matrix(1 0 0 1 -375 -954 )">
    <path d="M 13.269375000000025 9.375  C 13.485000000000014 9.858749999999986  13.59375 10.396874999999994  13.59375 10.987500000000011  C 13.59375 12.24562499999999  13.10250000000002 13.22999999999999  12.120937500000025 13.937812500000007  C 11.137499999999989 14.645624999999995  9.780937499999993 15  8.049374999999998 15  C 6.511874999999975 15  4.990312500000016 14.642812499999991  3.4837499999999864 13.927500000000009  L 3.4837499999999864 11.8125  C 4.908749999999998 12.634687500000013  6.366562499999986 13.046249999999986  7.858124999999973 13.046249999999986  C 10.249687499999993 13.046249999999986  11.448750000000018 12.360000000000014  11.457187499999975 10.986562499999991  C 11.467179410515996 10.42391085557665  11.247873324736531 9.881399041526493  10.849687500000016 9.483749999999986  L 10.737187500000005 9.374062500000008  L 0 9.374062500000008  L 0 7.499062500000008  L 16.875 7.499062500000008  L 16.875 9.374062500000008  L 13.269375000000025 9.374062500000008  Z M 7.543124999999975 5.907187499999992  C 8.124374999999986 6.075937500000009  8.759062500000027 6.295312499999994  9.44625000000002 6.5625  L 4.339687500000025 6.5625  C 4.175463715559033 6.412764719247292  4.024582037305777 6.249022024760421  3.888750000000016 6.0731250000000045  C 3.4837499999999864 5.550000000000011  3.28125 4.918125000000003  3.28125 4.1737500000000125  C 3.28125 3.0149999999999864  3.7181249999999864 2.0296874999999943  4.5909374999999955 1.217812500000008  C 5.465624999999989 0.4059374999999932  6.816562499999975 0  8.645624999999995 0  C 10.024687500000027 0  11.34468750000002 0.30750000000000455  12.603749999999991 0.9225000000000136  L 12.603749999999991 2.9399999999999977  C 11.478749999999991 2.295937500000008  10.245937500000025 1.974375000000009  8.904375000000016 1.974375000000009  C 6.579375000000027 1.974375000000009  5.417812500000025 2.7075000000000102  5.417812500000025 4.1737500000000125  C 5.417812500000025 4.5674999999999955  5.6221874999999955 4.91062500000001  6.030937499999993 5.204062499999992  C 6.439687499999991 5.497500000000002  6.944062499999973 5.73093750000001  7.543124999999975 5.907187499999992  Z " fill-rule="nonzero" fill="#333333" stroke="none" transform="matrix(1 0 0 1 375 954 )" />
  </g>
</svg>