<?xml version="1.0" encoding="utf-8"?>
<svg version="1.1" xmlns:xlink="http://www.w3.org/1999/xlink" width="15px" height="15px" xmlns="http://www.w3.org/2000/svg">
  <g transform="matrix(1 0 0 1 -461 -954 )">
    <path d="M 13.392499999999984 8.678333333333342  L 12.214166666666642 9.856666666666655  L 11.035833333333358 8.678333333333342  L 12.214166666666642 7.5  C 12.839304034592601 6.874862632074041  13.19050255097693 6.026994410733778  13.19050255097693 5.142916666666679  C 13.19050255097693 3.3019200679692347  11.698079932030794 1.8094974490230697  9.857083333333321 1.8094974490230697  C 8.973005589266222 1.8094974490230697  8.125137367925959 2.1606959654073705  7.5 2.785833333333329  L 6.321666666666658 3.964166666666671  L 5.143333333333317 2.785833333333329  L 6.321666666666658 1.6074999999999875  C 7.256899522950675 0.6873770596033353  8.516312922931263 0.17170890616901602  9.828291093831012 0.17170890616901602  C 12.58971484298496 0.17170890616901602  14.828291093831012 2.410285157015039  14.828291093831012 5.171708906169016  C 14.828291093831012 6.4836870770687085  14.312622940396636 7.743100477049324  13.392499999999984 8.678333333333342  Z M 8.678333333333342 11.03583333333333  L 9.856666666666683 12.21416666666667  L 8.678333333333342 13.392500000000013  C 7.738419015211207 14.34784924063581  6.454322583033274 14.88587557283563  5.11412442716437 14.88587557283563  C 2.3527006780104216 14.88587557283563  0.11412442716436999 12.647299321989578  0.11412442716436999 9.88587557283563  C 0.11412442716436999 8.545677416966726  0.65215075936419 7.261580984788765  1.607500000000016 6.321666666666658  L 2.7858333333333576 5.143333333333345  L 3.9641666666666424 6.321666666666658  L 2.7858333333333576 7.5  C 2.160695965407399 8.125137367925959  1.8094974490230697 8.973005589266222  1.8094974490230697 9.857083333333321  C 1.8094974490230697 11.698079932030765  3.3019200679692062 13.19050255097693  5.142916666666679 13.19050255097693  C 6.026994410733778 13.19050255097693  6.874862632074041 12.83930403459263  7.5 12.21416666666667  L 8.678333333333342 11.03583333333333  Z M 9.856666666666683 3.964166666666671  L 11.035833333333358 5.143333333333345  L 5.143333333333317 11.034999999999997  L 3.9641666666666424 9.856666666666655  L 9.856666666666683 3.965000000000004  Z " fill-rule="nonzero" fill="#333333" stroke="none" transform="matrix(1 0 0 1 461 954 )" />
  </g>
</svg>