<?xml version="1.0" encoding="utf-8"?>
<svg version="1.1" xmlns:xlink="http://www.w3.org/1999/xlink" width="16px" height="16px" xmlns="http://www.w3.org/2000/svg">
  <g transform="matrix(1 0 0 1 -814 -667 )">
    <path d="M 12 0.8  L 12 3.2  L 16 3.2  L 16 4.8  L 14.4 4.8  L 14.4 15.2  C 14.4 15.641839999999998  14.041839999999999 16  13.6 16  L 2.4 16  C 1.9581760000000004 16  1.6 15.641839999999998  1.6 15.2  L 1.6 4.8  L 0 4.8  L 0 3.2  L 4 3.2  L 4 0.8  C 4 0.35817599999999994  4.358176 0  4.8 0  L 11.2 0  C 11.641839999999998 0  12 0.35817599999999994  12 0.8  Z M 12.8 14.4  L 12.8 4.8  L 3.2 4.8  L 3.2 14.4  L 12.8 14.4  Z M 5.6 12  L 5.6 7.2  L 7.2 7.2  L 7.2 12  L 5.6 12  Z M 8.8 12  L 8.8 7.2  L 10.4 7.2  L 10.4 12  L 8.8 12  Z M 10.4 1.6  L 5.6 1.6  L 5.6 3.2  L 10.4 3.2  L 10.4 1.6  Z " fill-rule="nonzero" fill="#cccccc" stroke="none" fill-opacity="0.9882352941176471" transform="matrix(1 0 0 1 814 667 )" />
  </g>
</svg>