<?xml version="1.0" encoding="utf-8"?>
<svg version="1.1" xmlns:xlink="http://www.w3.org/1999/xlink" width="15px" height="18px" xmlns="http://www.w3.org/2000/svg">
  <g transform="matrix(1 0 0 1 -340 -799 )">
    <path d="M 7.5 0  C 9.801186457628319 0  11.666666666666629 1.831562387055783  11.666666666666629 4.090909090909122  L 11.666666666666629 7.36363636363626  C 11.666666666666629 9.6229830674896  9.801186457628319 11.454545454545382  7.5 11.454545454545382  C 5.198813542371681 11.454545454545382  3.3333333333333712 9.6229830674896  3.3333333333333712 7.36363636363626  L 3.3333333333333712 4.090909090909122  C 3.3333333333333712 1.831562387055783  5.198813542371681 0  7.5 0  Z M 6.666666666666686 14.682272727272675  C 3.18452619641414 14.299060948187162  0.43614162684633584 11.600647007157022  0.04583333333334849 8.18181818181813  L 1.7250000000000227 8.18181818181813  C 2.1423726662617923 10.9974318138037  4.60119901109681 13.085635226772638  7.499166666666667 13.085635226772638  C 10.397134322236468 13.085635226772638  12.855960667071486 10.9974318138037  13.273333333333369 8.18181818181813  L 14.953333333333319 8.18181818181813  C 14.56310066389699 11.600376565478086  11.815149206291778 14.298704895278433  8.333333333333314 14.682272727272675  L 8.333333333333314 18  L 6.666666666666686 18  L 6.666666666666686 14.682272727272675  Z " fill-rule="nonzero" fill="#cccccc" stroke="none" transform="matrix(1 0 0 1 340 799 )" />
  </g>
</svg>