<?xml version="1.0" encoding="utf-8"?>
<svg version="1.1" xmlns:xlink="http://www.w3.org/1999/xlink" width="17px" height="17px" xmlns="http://www.w3.org/2000/svg">
  <g transform="matrix(1 0 0 1 -377 -800 )">
    <path d="M 17 8.5  C 17 13.194549999999936  13.194549999999992 17  8.5 17  C 3.8054500000000075 17  0 13.194549999999936  0 8.5  C 0 3.8054500000000644  3.8054500000000075 0  8.5 0  C 13.194549999999992 0  17 3.8054500000000644  17 8.5  Z M 8.5 15.299999999999955  C 12.255536298849393 15.299999999999955  15.300000000000011 12.255536298849393  15.300000000000011 8.5  C 15.300000000000011 4.7444637011506074  12.255536298849393 1.7000000000000455  8.5 1.7000000000000455  C 4.7444637011506074 1.7000000000000455  1.6999999999999886 4.7444637011506074  1.6999999999999886 8.5  C 1.6999999999999886 12.255536298849393  4.7444637011506074 15.299999999999955  8.5 15.299999999999955  Z M 8.5 12.75  C 6.622231850575304 12.75  5.100000000000023 11.227768149424719  5.100000000000023 9.350000000000023  L 11.899999999999977 9.350000000000023  C 11.899999999999977 11.227768149424719  10.377768149424696 12.75  8.5 12.75  Z M 5.100000000000023 7.649999999999977  C 4.395836943965719 7.649999999999977  3.8249999999999886 7.079163056034304  3.8249999999999886 6.375  C 3.8249999999999886 5.670836943965696  4.395836943965719 5.100000000000023  5.100000000000023 5.100000000000023  C 5.80416305603427 5.100000000000023  6.375 5.670836943965696  6.375 6.375  C 6.375 7.079163056034304  5.80416305603427 7.649999999999977  5.100000000000023 7.649999999999977  Z M 11.899999999999977 7.649999999999977  C 11.19583694396573 7.649999999999977  10.625 7.079163056034304  10.625 6.375  C 10.625 5.670836943965696  11.19583694396573 5.100000000000023  11.899999999999977 5.100000000000023  C 12.604163056034281 5.100000000000023  13.175000000000011 5.670836943965696  13.175000000000011 6.375  C 13.175000000000011 7.079163056034304  12.604163056034281 7.649999999999977  11.899999999999977 7.649999999999977  Z " fill-rule="nonzero" fill="#cccccc" stroke="none" transform="matrix(1 0 0 1 377 800 )" />
  </g>
</svg>