<?xml version="1.0" encoding="utf-8"?>
<svg version="1.1" xmlns:xlink="http://www.w3.org/1999/xlink" width="17px" height="15px" xmlns="http://www.w3.org/2000/svg">
  <g transform="matrix(1 0 0 1 -413 -802 )">
    <path d="M 15.300000000000011 10.008333333333326  L 15.300000000000011 1.6666666666666288  L 2 1.6666666666666288  L 2 13.333333333333371  L 9.598200000000077 5.588333333333367  C 9.930124873762963 5.263015051389289  10.468175126237156 5.263015051389289  10.800100000000043 5.588333333333367  L 15.300000000000011 10.008333333333326  Z M 0 14.172500000000014  L 0 0.8274999999999864  C 0.003236649646225942 0.37212961989087034  0.37872570915789083 0.003631995666523835  0.8432000000000812 0  L 16.156800000000032 0  C 16.622599999999977 0  17 0.37083333333339397  17 0.8274999999999864  L 17 14.172500000000014  C 16.996763350353888 14.62787038010913  16.621274290842166 14.996368004333476  16.156800000000032 15  L 0.8432000000000812 15  C 0.37737603710314715 14.999540090240544  0 14.629190391278826  0 14.172500000000014  Z M 5.10000000000008 6.6666666666667425  C 4.161115925287731 6.6666666666667425  3.400000000000091 5.920474583051259  3.400000000000091 5  C 3.400000000000091 4.079525416948627  4.161115925287731 3.3333333333333712  5.10000000000008 3.3333333333333712  C 6.038884074712428 3.3333333333333712  6.800000000000068 4.079525416948627  6.800000000000068 5  C 6.800000000000068 5.920474583051259  6.038884074712428 6.6666666666667425  5.10000000000008 6.6666666666667425  Z " fill-rule="nonzero" fill="#cccccc" stroke="none" transform="matrix(1 0 0 1 413 802 )" />
  </g>
</svg>