<?xml version="1.0" encoding="utf-8"?>
<svg version="1.1" xmlns:xlink="http://www.w3.org/1999/xlink" width="14px" height="15px" xmlns="http://www.w3.org/2000/svg">
  <g transform="matrix(1 0 0 1 -787 -112 )">
    <path d="M 2.2105263157894735 14.25  L 2.2105263157894735 12  L 3.6842105263157894 12  L 3.6842105263157894 13.5  L 12.526315789473685 13.5  L 12.526315789473685 1.5  L 3.6842105263157894 1.5  L 3.6842105263157894 3  L 2.2105263157894735 3  L 2.2105263157894735 0.75  C 2.2105263157894735 0.3357899999999999  2.540425263157895 0  2.9473684210526314 0  L 13.26315789473684 0  C 13.670115789473682 0  14 0.3357899999999999  14 0.75  L 14 14.25  C 14 14.664224999999998  13.670115789473682 15  13.26315789473684 15  L 2.9473684210526314 15  C 2.540425263157895 15  2.2105263157894735 14.664224999999998  2.2105263157894735 14.25  Z M 3.6842105263157894 4.5  L 3.6842105263157894 6.75  L 8.842105263157894 6.75  L 8.842105263157894 8.25  L 3.6842105263157894 8.25  L 3.6842105263157894 10.5  L 0 7.5  L 3.6842105263157894 4.5  Z " fill-rule="nonzero" fill="#3dd4a7" stroke="none" fill-opacity="0.8" transform="matrix(1 0 0 1 787 112 )" />
  </g>
</svg>