<?xml version="1.0" encoding="utf-8"?>
<svg version="1.1" xmlns:xlink="http://www.w3.org/1999/xlink" width="19px" height="14px" xmlns="http://www.w3.org/2000/svg">
  <g transform="matrix(1 0 0 1 -318 -263 )">
    <path d="M 0 13.125  L 0 0.875  C 0 0.3917550000000003  0.38666727272727264 0  0.8636363636363636 0  L 18.136363636363637 0  C 18.613349999999997 0  19 0.3917550000000003  19 0.875  L 19 13.125  C 19 13.608262499999999  18.613349999999997 14  18.136363636363637 14  L 0.8636363636363636 14  C 0.38666727272727264 14  0 13.608262499999999  0 13.125  Z M 15.545454545454547 3.5  L 10.363636363636363 3.5  L 10.363636363636363 5.25  L 15.545454545454547 5.25  L 15.545454545454547 3.5  Z M 14.681818181818182 8.75  L 14.681818181818182 7  L 10.363636363636363 7  L 10.363636363636363 8.75  L 14.681818181818182 8.75  Z M 6.045454545454545 7.4375  C 7.23788590909091 7.4375  8.204545454545455 6.4581124999999995  8.204545454545455 5.25  C 8.204545454545455 4.0418787499999995  7.23788590909091 3.0625  6.045454545454545 3.0625  C 4.853023181818182 3.0625  3.8863636363636367 4.0418787499999995  3.8863636363636367 5.25  C 3.8863636363636367 6.4581124999999995  4.853023181818182 7.4375  6.045454545454545 7.4375  Z M 9.068181818181818 11.375  C 9.068181818181818 9.683625  7.714863636363637 8.3125  6.045454545454545 8.3125  C 4.376045454545455 8.3125  3.0227272727272725 9.683625  3.0227272727272725 11.375  L 9.068181818181818 11.375  Z " fill-rule="nonzero" fill="#cccccc" stroke="none" fill-opacity="0.9882352941176471" transform="matrix(1 0 0 1 318 263 )" />
  </g>
</svg>