<?xml version="1.0" encoding="utf-8"?>
<svg version="1.1" xmlns:xlink="http://www.w3.org/1999/xlink" width="890px" height="775px" xmlns="http://www.w3.org/2000/svg">
  <g transform="matrix(1 0 0 1 -280 -120 )">
    <path d="M 281 136  A 15 15 0 0 1 296 121 L 1154 121  A 15 15 0 0 1 1169 136 L 1169 879  A 15 15 0 0 1 1154 894 L 296 894  A 15 15 0 0 1 281 879 L 281 136  Z " fill-rule="nonzero" fill="#ffffff" stroke="none" />
    <path d="M 280.5 136  A 15.5 15.5 0 0 1 296 120.5 L 1154 120.5  A 15.5 15.5 0 0 1 1169.5 136 L 1169.5 879  A 15.5 15.5 0 0 1 1154 894.5 L 296 894.5  A 15.5 15.5 0 0 1 280.5 879 L 280.5 136  Z " stroke-width="1" stroke="#f2f2f2" fill="none" stroke-opacity="0.9882352941176471" />
  </g>
</svg>