<?xml version="1.0" encoding="utf-8"?>
<svg version="1.1" xmlns:xlink="http://www.w3.org/1999/xlink" width="18px" height="18px" xmlns="http://www.w3.org/2000/svg">
  <g>
    <path d="M 18 9  C 18 13.970700000000022  13.970700000000022 18  9 18  C 4.029299999999978 18  0 13.970700000000022  0 9  C 0 4.029299999999978  4.029299999999978 0  9 0  C 13.970700000000022 0  18 4.029299999999978  18 9  Z M 9 16.19999999999999  C 12.97645019878172 16.19999999999999  16.19999999999999 12.97645019878172  16.19999999999999 9  C 16.19999999999999 5.02354980121828  12.97645019878172 1.8000000000000114  9 1.8000000000000114  C 5.02354980121828 1.8000000000000114  1.8000000000000114 5.02354980121828  1.8000000000000114 9  C 1.8000000000000114 12.97645019878172  5.02354980121828 16.19999999999999  9 16.19999999999999  Z M 9.899999999999977 4.5  L 9.899999999999977 9  L 13.5 9  L 13.5 10.800000000000011  L 8.100000000000023 10.800000000000011  L 8.100000000000023 4.5  L 9.899999999999977 4.5  Z " fill-rule="nonzero" fill="#cccccc" stroke="none" />
  </g>
</svg>