<?xml version="1.0" encoding="utf-8"?>
<svg version="1.1" xmlns:xlink="http://www.w3.org/1999/xlink" width="14px" height="14px" xmlns="http://www.w3.org/2000/svg">
  <g transform="matrix(1 0 0 1 -282 -688 )">
    <path d="M 7.333333333333336 13.333333333333332  C 6.238236035750453 13.334982090808246  5.159744557368825 13.065645505848213  4.194000000000001 12.549333333333335  L 0.6666666666666666 13.333333333333332  L 1.4506666666666672 9.806  C 0.9343544941517865 8.840255442631177  0.6650179091917537 7.761763964249548  0.6666666666666666 6.666666666666666  C 0.6666666666666666 2.984666666666667  3.6513333333333335 0  7.333333333333334 0  C 11.015333333333334 0  14 2.984666666666667  14 6.666666666666666  C 14 10.348666666666666  11.015333333333334 13.333333333333332  7.333333333333336 13.333333333333332  Z M 2.4226666666666663 11.577333333333332  L 4.387333333333334 11.140666666666668  L 4.8226666666666675 11.374000000000004  C 5.595033431766838 11.786759449022792  6.457595105507613 12.001827269427089  7.333333333333334 12  C 10.278851999097563 12  12.666666666666666 9.612185332430897  12.666666666666666 6.666666666666666  C 12.666666666666666 3.721148000902435  10.278851999097563 1.3333333333333333  7.333333333333334 1.3333333333333333  C 4.387814667569102 1.3333333333333333  2 3.721148000902435  2 6.666666666666666  C 2 7.556  2.216666666666667 8.412  2.6266666666666665 9.177333333333333  L 2.859333333333333 9.612666666666668  L 2.4226666666666663 11.577333333333332  Z " fill-rule="nonzero" fill="#cecece" stroke="none" transform="matrix(1 0 0 1 282 688 )" />
  </g>
</svg>