<?xml version="1.0" encoding="utf-8"?>
<svg version="1.1" xmlns:xlink="http://www.w3.org/1999/xlink" width="22px" height="13px" xmlns="http://www.w3.org/2000/svg">
  <g transform="matrix(1 0 0 1 -293 -16 )">
    <path d="M 3.032366071428612 9.717526041666645  L 3.1428571428571104 10.000833333333333  L 3.1428571428571104 12.365833333333342  L 3.032366071428612 12.649140625000001  L 2.75 12.759999999999991  L 0.3928571428571104 12.759999999999991  L 0.11049107142861203 12.649140625000001  L 0 12.365833333333342  L 0 10.000833333333333  L 0.11049107142861203 9.717526041666645  L 0.3928571428571104 9.606666666666655  L 2.75 9.606666666666655  L 3.032366071428612 9.717526041666645  Z M 7.746651785714278 8.140859374999991  L 7.857142857142889 8.42416666666665  L 7.857142857142889 12.365833333333342  L 7.746651785714278 12.649140625000001  L 7.464285714285722 12.759999999999991  L 5.10714285714289 12.759999999999991  L 4.824776785714278 12.649140625000001  L 4.714285714285722 12.365833333333342  L 4.714285714285722 8.42416666666665  L 4.824776785714278 8.140859374999991  L 5.10714285714289 8.029999999999973  L 7.464285714285722 8.029999999999973  L 7.746651785714278 8.140859374999991  Z M 12.4609375 4.987526041666655  L 12.571428571428555 5.270833333333343  L 12.571428571428555 12.365833333333342  L 12.4609375 12.649140625000001  L 12.178571428571445 12.759999999999991  L 9.821428571428612 12.759999999999991  L 9.5390625 12.649140625000001  L 9.428571428571388 12.365833333333342  L 9.428571428571388 5.270833333333343  L 9.5390625 4.987526041666655  L 9.821428571428612 4.876666666666637  L 12.178571428571445 4.876666666666637  L 12.4609375 4.987526041666655  Z M 17.175223214285722 0.25752604166663673  L 17 0.540833333333353  L 17 12.365833333333342  L 17.175223214285722 12.649140625000001  L 16.89285714285711 12.759999999999991  L 14.535714285714278 12.759999999999991  L 14.253348214285722 12.649140625000001  L 14 12.365833333333342  L 14 0.540833333333353  L 14.253348214285722 0.25752604166663673  L 14.535714285714278 0.14666666666664696  L 16.89285714285711 0.14666666666664696  L 17.175223214285722 0.25752604166663673  Z M 19.25 12.759999999999991  L 22 12.365833333333342  L 19.25 12.759999999999991  Z " fill-rule="nonzero" fill="#000000" stroke="none" transform="matrix(1 0 0 1 293 16 )" />
  </g>
</svg>