<?xml version="1.0" encoding="utf-8"?>
<svg version="1.1" xmlns:xlink="http://www.w3.org/1999/xlink" width="12px" height="20px" xmlns="http://www.w3.org/2000/svg">
  <g transform="matrix(1 0 0 1 -342 -14 )">
    <path d="M 9.190333333333346 19.50116666666662  C 10.282333333333327 19.50116666666662  11.166666666666671 18.606333333333225  11 17.50733333333335  L 11 4.01833333333326  C 11.166666666666671 2.9169999999999736  10.281166666666653 2.0244999999999322  9.190333333333346 2.0244999999999322  L 7.665499999999997 2.0244999999999322  L 7.665499999999997 0.8391666666666425  L 4.166666666666671 0.8391666666666425  L 4.166666666666671 2.0244999999999322  L 2.7316666666666762 2.0244999999999322  C 1.6396666666666704 2.0244999999999322  0.7553333333333256 2.91816666666665  0.6666666666666643 4.01833333333326  L 0.6666666666666643 17.50733333333335  C 0.7553333333333256 18.606333333333225  1.64083333333334 19.50116666666662  2.7316666666666762 19.50116666666662  L 9.190333333333346 19.50116666666662  Z M 3.0000000000000036 3.1666666666666288  L 8.833333333333336 3.1666666666666288  C 9.42366666666667 3.1666666666666288  10.000000000000007 3.7219999999999804  10 4.3333333333332575  L 10 17.16666666666663  C 10.000000000000007 17.779166666666583  9.42366666666667 18.333333333333314  8.833333333333336 18.333333333333314  L 3.0000000000000036 18.333333333333314  C 2.4096666666666664 18.333333333333314  1.8205000000000027 17.779166666666583  2 17.16666666666663  L 2 4.3333333333332575  C 1.8205000000000027 3.7231666666666  2.4096666666666664 3.1666666666666288  3.0000000000000036 3.1666666666666288  Z M 8.833333333333336 16.5623333333333  L 8.833333333333336 5.009999999999934  C 8.833333333333336 4.684499999999957  8.486833333333344 4.3333333333332575  8.187000000000005 4.3333333333332575  L 3.62299999999999 4.3333333333332575  C 3.325499999999994 4.3333333333332575  3.0000000000000036 4.684499999999957  3 5.009999999999934  L 3 16.5623333333333  C 3.0000000000000036 16.88083333333327  3.3243333333333247 17.14216666666664  3.624166666666664 17.14216666666664  L 8.188166666666675 17.14216666666664  C 8.484499999999997 17.14216666666664  8.833333333333336 16.88083333333327  8.833333333333336 16.5623333333333  Z " fill-rule="nonzero" fill="#000000" stroke="none" transform="matrix(1 0 0 1 342 14 )" />
  </g>
</svg>