<?xml version="1.0" encoding="utf-8"?>
<svg version="1.1" xmlns:xlink="http://www.w3.org/1999/xlink" width="14px" height="14px" xmlns="http://www.w3.org/2000/svg">
  <g transform="matrix(1 0 0 1 -342 -57 )">
    <path d="M 0.7777777777777999 0  L 5.4444444444444 0  L 5.4444444444444 1.55555555555555  L 1.5555555555555998 1.55555555555555  L 1.5555555555555998 12.44444444444445  L 12.4444444444444 12.44444444444445  L 12.4444444444444 8.55555555555555  L 14 8.55555555555555  L 14 13.222222222222225  C 14 13.651777027646173  13.651777027646197 14  13.2222222222222 14  L 0.7777777777777999 14  C 0.3482229723538026 14  0 13.651777027646173  0 13.222222222222225  L 0 0.777777777777775  C 0 0.3482229723538275  0.3482229723538026 0  0.7777777777777999 0  Z M 5.900222222222254 7  L 11.344666666666654 1.55555555555555  L 7.7777777777778 1.55555555555555  L 7.7777777777778 0  L 14 0  L 14 6.222222222222225  L 12.4444444444444 6.222222222222225  L 12.4444444444444 2.655333333333333  L 7 8.099777777777783  L 5.900222222222254 7  Z " fill-rule="nonzero" fill="#333333" stroke="none" transform="matrix(1 0 0 1 342 57 )" />
  </g>
</svg>