<?xml version="1.0" encoding="utf-8"?>
<svg version="1.1" xmlns:xlink="http://www.w3.org/1999/xlink" width="16px" height="12px" xmlns="http://www.w3.org/2000/svg">
  <g transform="matrix(1 0 0 1 -317 -17 )">
    <path d="M 16 3.6363636363636545  C 11.581818181818164 -0.7818181818181813  4.418181818181836 -0.7818181818181813  0 3.6363636363636545  L 1.454545454545439 5.090909090909065  C 5.069090909090903 1.476363636363601  10.930909090909097 1.476363636363601  14.545454545454561 5.090909090909065  L 16 3.6363636363636545  Z M 10.18181818181813 9.454545454545439  C 8.978181818181838 8.250909090909119  7.021818181818162 8.250909090909119  5.81818181818187 9.454545454545439  L 8 11.636363636363654  L 10.18181818181813 9.454545454545439  Z M 13.090909090909122 6.545454545454589  C 10.28000000000003 3.73454545454544  5.71999999999997 3.73454545454544  2.909090909090878 6.545454545454589  L 4.363636363636374 8  C 6.370909090909095 5.992727272727279  9.629090909090905 5.992727272727279  11.636363636363626 8  L 13.090909090909122 6.545454545454589  Z " fill-rule="nonzero" fill="#000000" stroke="none" transform="matrix(1 0 0 1 317 17 )" />
  </g>
</svg>