<?xml version="1.0" encoding="utf-8"?>
<svg version="1.1" xmlns:xlink="http://www.w3.org/1999/xlink" width="18px" height="18px" xmlns="http://www.w3.org/2000/svg">
  <g transform="matrix(1 0 0 1 -322 -17 )">
    <path d="M 9.42857142857143 17.142857142857142  C 8.020589188822012 17.144976973896316  6.633957288045632 16.798687078947705  5.392285714285714 16.134857142857143  L 0.8571428571428571 17.142857142857142  L 1.8651428571428577 12.607714285714286  C 1.2013129210522968 11.36604271195437  0.8550230261036834 9.97941081117799  0.8571428571428571 8.571428571428571  C 0.8571428571428571 3.8374285714285716  4.694571428571429 0  9.428571428571429 0  C 14.162571428571429 0  18 3.8374285714285716  18 8.571428571428571  C 18 13.305428571428571  14.162571428571429 17.142857142857142  9.42857142857143 17.142857142857142  Z M 3.1148571428571428 14.885142857142856  L 5.6408571428571435 14.323714285714289  L 6.20057142857143 14.623714285714291  C 7.193614412271648 15.154405005886446  8.302622278509787 15.430920774977686  9.428571428571429 15.428571428571427  C 13.215666855982581 15.428571428571427  16.285714285714285 12.358523998839726  16.285714285714285 8.571428571428571  C 16.285714285714285 4.784333144017417  13.215666855982581 1.7142857142857142  9.428571428571429 1.7142857142857142  C 5.641476001160274 1.7142857142857142  2.571428571428571 4.784333144017417  2.571428571428571 8.571428571428571  C 2.571428571428571 9.714857142857143  2.8500000000000005 10.815428571428571  3.377142857142857 11.799428571428571  L 3.676285714285714 12.359142857142858  L 3.1148571428571428 14.885142857142856  Z " fill-rule="nonzero" fill="#333333" stroke="none" transform="matrix(1 0 0 1 322 17 )" />
  </g>
</svg>