<?xml version="1.0" encoding="utf-8"?>
<svg version="1.1" xmlns:xlink="http://www.w3.org/1999/xlink" width="16px" height="15px" xmlns="http://www.w3.org/2000/svg">
  <g transform="matrix(1 0 0 1 0 -3 )">
    <path d="M 8 1.5789473684210527  C 8.8 0.7894736842105263  10.112 0  11.6 0  C 14.0304 0  16 1.9736842105263157  16 4.7368421052631575  C 16 10.263157894736842  10 13.421052631578947  8 14.605263157894738  C 6 13.421052631578947  0 10.263157894736842  0 4.7368421052631575  C 0 1.9736842105263157  2 0  4.4 0  C 5.888 0  7.2 0.7894736842105263  8 1.5789473684210527  Z M 7.999999999999998 12.76973684210526  C 8.271199999999999 12.610263157894734  8.508 12.46736842105263  8.747200000000001 12.318947368421052  C 9.452000000000002 11.879999999999999  10.088000000000001 11.443421052631578  10.683200000000001 10.976052631578947  C 13.068000000000001 9.105  14.4 7.060263157894736  14.4 4.7368421052631575  C 14.4 2.8736842105263163  13.1704 1.5789473684210527  11.6 1.5789473684210527  C 10.7392 1.5789473684210527  9.808 2.028947368421053  9.1312 2.6952631578947366  L 8 3.811578947368422  L 6.8688 2.695263157894737  C 6.192 2.028947368421053  5.260800000000001 1.5789473684210527  4.4 1.5789473684210527  C 2.848 1.5789473684210527  1.6 2.886315789473684  1.6 4.7368421052631575  C 1.6 7.061052631578947  2.9328000000000003 9.105000000000002  5.316 10.976052631578947  C 5.911999999999999 11.443421052631578  6.547999999999999 11.879999999999999  7.252799999999999 12.31815789473684  C 7.491999999999999 12.46736842105263  7.7288 12.610263157894735  7.999999999999998 12.76973684210526  Z " fill-rule="nonzero" fill="#000000" stroke="none" transform="matrix(1 0 0 1 0 3 )" />
  </g>
</svg>