<?xml version="1.0" encoding="utf-8"?>
<svg version="1.1" xmlns:xlink="http://www.w3.org/1999/xlink" width="890px" height="1120px" xmlns="http://www.w3.org/2000/svg">
  <g transform="matrix(1 0 0 1 -280 -122 )">
    <path d="M 281 138  A 15 15 0 0 1 296 123 L 1154 123  A 15 15 0 0 1 1169 138 L 1169 1226  A 15 15 0 0 1 1154 1241 L 296 1241  A 15 15 0 0 1 281 1226 L 281 138  Z " fill-rule="nonzero" fill="#ffffff" stroke="none" />
    <path d="M 280.5 138  A 15.5 15.5 0 0 1 296 122.5 L 1154 122.5  A 15.5 15.5 0 0 1 1169.5 138 L 1169.5 1226  A 15.5 15.5 0 0 1 1154 1241.5 L 296 1241.5  A 15.5 15.5 0 0 1 280.5 1226 L 280.5 138  Z " stroke-width="1" stroke="#f2f2f2" fill="none" stroke-opacity="0.9882352941176471" />
  </g>
</svg>