<?xml version="1.0" encoding="utf-8"?>
<svg version="1.1" xmlns:xlink="http://www.w3.org/1999/xlink" width="18px" height="18px" xmlns="http://www.w3.org/2000/svg">
  <g transform="matrix(1 0 0 1 0 -2 )">
    <path d="M 18 9  C 18 13.970699999999995  13.970700000000008 18  9 18  C 4.0293000000000045 18  0 13.970699999999995  0 9  C 0 4.0293000000000045  4.0293000000000045 0  9 0  C 13.970700000000008 0  18 4.0293000000000045  18 9  Z M 9 16.199999999999996  C 12.976450198781714 16.199999999999996  16.199999999999996 12.976450198781714  16.199999999999996 9  C 16.199999999999996 5.023549801218285  12.976450198781714 1.8000000000000054  9 1.8000000000000054  C 5.023549801218292 1.8000000000000054  1.799999999999999 5.023549801218285  1.799999999999999 9  C 1.799999999999999 12.976450198781714  5.023549801218292 16.199999999999996  9 16.199999999999996  Z M 6.454800000000001 5.1813  L 9 7.7274  L 11.5452 5.1813  L 12.818700000000002 6.454800000000001  L 10.2726 9  L 12.818700000000002 11.5452  L 11.5452 12.818700000000002  L 9 10.2726  L 6.454800000000001 12.818700000000002  L 5.181300000000006 11.5452  L 7.7274 9  L 5.181300000000006 6.454800000000001  L 6.454800000000001 5.1813  Z " fill-rule="nonzero" fill="#cccccc" stroke="none" transform="matrix(1 0 0 1 0 2 )" />
  </g>
</svg>