<?xml version="1.0" encoding="utf-8"?>
<svg version="1.1" xmlns:xlink="http://www.w3.org/1999/xlink" width="10px" height="6px" xmlns="http://www.w3.org/2000/svg">
  <g transform="matrix(1 0 0 1 -287 -17 )">
    <path d="M 9.814453125 0.18472222222222  C 9.938151041666671 0.3078703703703667  10 0.45370370370369884  10 0.6222222222222236  C 10 0.7907407407407412  9.938151041666671 0.9365740740740698  9.814453125 1.0597222222222165  L 5.439453125 5.415277777777785  C 5.315755208333329 5.538425925925932  5.169270833333329 5.600000000000005  5 5.600000000000005  C 4.830729166666671 5.600000000000005  4.684244791666671 5.538425925925932  4.560546875 5.415277777777785  L 0.185546875 1.0597222222222165  C 0.061848958333328596 0.9365740740740698  0 0.7907407407407412  0 0.6222222222222236  C 0 0.45370370370369884  0.061848958333328596 0.3078703703703667  0.185546875 0.18472222222222  C 0.3092447916666714 0.06157407407407334  0.4557291666666714 0  0.625 0  L 9.375 0  C 9.544270833333329 0  9.690755208333329 0.06157407407407334  9.814453125 0.18472222222222  Z " fill-rule="nonzero" fill="#cccccc" stroke="none" transform="matrix(1 0 0 1 287 17 )" />
  </g>
</svg>