<?xml version="1.0" encoding="utf-8"?>
<svg version="1.1" xmlns:xlink="http://www.w3.org/1999/xlink" width="14px" height="14px" xmlns="http://www.w3.org/2000/svg">
  <g transform="matrix(1 0 0 1 -528 -192 )">
    <path d="M 535 195  C 537.24 195  539 196.76  539 199  C 539 201.24  537.24 203  535 203  C 532.76 203  531 201.24  531 199  C 531 196.76  532.76 195  535 195  Z " fill-rule="nonzero" fill="#ffffff" stroke="none" />
    <path d="M 535 194  C 537.8 194  540 196.2  540 199  C 540 201.8  537.8 204  535 204  C 532.2 204  530 201.8  530 199  C 530 196.2  532.2 194  535 194  Z " stroke-width="4" stroke="#3dd4a7" fill="none" />
  </g>
</svg>