<?xml version="1.0" encoding="utf-8"?>
<svg version="1.1" xmlns:xlink="http://www.w3.org/1999/xlink" width="16px" height="16px" xmlns="http://www.w3.org/2000/svg">
  <g transform="matrix(1 0 0 1 -119 -210 )">
    <path d="M 127 210  C 131.48 210  135 213.52  135 218  C 135 222.48  131.48 226  127 226  C 122.52 226  119 222.48  119 218  C 119 213.52  122.52 210  127 210  Z " fill-rule="nonzero" fill="#ffffff" stroke="none" />
    <path d="M 127 210.5  C 131.2 210.5  134.5 213.8  134.5 218  C 134.5 222.2  131.2 225.5  127 225.5  C 122.8 225.5  119.5 222.2  119.5 218  C 119.5 213.8  122.8 210.5  127 210.5  Z " stroke-width="1" stroke="#cccccc" fill="none" />
  </g>
</svg>