<?xml version="1.0" encoding="utf-8"?>
<svg version="1.1" xmlns:xlink="http://www.w3.org/1999/xlink" width="16px" height="16px" xmlns="http://www.w3.org/2000/svg">
  <g transform="matrix(1 0 0 1 -119 -210 )">
    <path d="M 127 214  C 129.24 214  131 215.76  131 218  C 131 220.24  129.24 222  127 222  C 124.76 222  123 220.24  123 218  C 123 215.76  124.76 214  127 214  Z " fill-rule="nonzero" fill="#ffffff" stroke="none" />
    <path d="M 127 212.5  C 130.08 212.5  132.5 214.92  132.5 218  C 132.5 221.08  130.08 223.5  127 223.5  C 123.92 223.5  121.5 221.08  121.5 218  C 121.5 214.92  123.92 212.5  127 212.5  Z " stroke-width="5" stroke="#3dd4a7" fill="none" />
  </g>
</svg>