<?xml version="1.0" encoding="utf-8"?>
<svg version="1.1" xmlns:xlink="http://www.w3.org/1999/xlink" width="18px" height="18px" xmlns="http://www.w3.org/2000/svg">
  <g transform="matrix(1 0 0 1 -13 -31 )">
    <path d="M 18 15.300000002109357  C 18 16.791168825487546  16.79116882548754 18  15.300000002109371 18  L 2.699999997890629 18  C 1.2088311745124543 18  0 16.791168825487546  0 15.300000002109357  L 0 0.9000000063281846  C 0 0.40294372798553013  0.4029437279854804 0  0.9000000063281206 0  L 13.499999989453116 0  C 13.99705626779577 0  14.399999995781258 0.40294372798553013  14.399999995781258 0.9000000063281846  L 14.399999995781258 7.200000008437428  L 18 7.200000008437428  L 18 15.300000002109357  Z M 16.19999998734376 9  L 14.399999995781258 9  L 14.399999995781258 15.300000002109357  C 14.400076083430108 15.797002467563289  14.80299752028435 16.19986222464678  15.299999991562501 16.19986222464678  C 15.79700246284066 16.19986222464678  16.19992389969488 15.797002467563289  16.19999998734376 15.300000002109357  L 16.19999998734376 9  Z M 8.099999993671887 3.6000000042187708  L 2.699999997890629 3.6000000042187708  L 2.699999997890629 9  L 8.099999993671887 9  L 8.099999993671887 3.6000000042187708  Z M 11.699999997890629 9.900000006328185  L 2.699999997890629 9.900000006328185  L 2.699999997890629 11.699999997890643  L 11.699999997890629 11.699999997890643  L 11.699999997890629 9.900000006328185  Z M 11.699999997890629 12.60000000421877  L 2.699999997890629 12.60000000421877  L 2.699999997890629 14.39999999578123  L 11.699999997890629 14.39999999578123  L 11.699999997890629 12.60000000421877  Z M 4.500000010546877 7.200000008437428  L 4.500000010546877 5.399999995781229  L 6.300000002109371 5.399999995781229  L 6.300000002109371 7.200000008437428  L 4.500000010546877 7.200000008437428  Z " fill-rule="nonzero" fill="#3dd4a7" stroke="none" transform="matrix(1 0 0 1 13 31 )" />
  </g>
</svg>