<?xml version="1.0" encoding="utf-8"?>
<svg version="1.1" xmlns:xlink="http://www.w3.org/1999/xlink" width="24px" height="24px" xmlns="http://www.w3.org/2000/svg">
  <g transform="matrix(1 0 0 1 -20 -24 )">
    <path d="M 13.609375 16.390625  C 13.703125 16.484375  13.75 16.604166666666686  13.75 16.75  L 13.75 19.25  C 13.75 19.395833333333314  13.703125 19.515625  13.609375 19.609375  C 13.515625 19.703125  13.395833333333343 19.75  13.25 19.75  L 10.75 19.75  C 10.604166666666657 19.75  10.484375 19.703125  10.390625 19.609375  C 10.296875 19.515625  10.25 19.395833333333314  10.25 19.25  L 10.25 16.75  C 10.25 16.604166666666686  10.296875 16.484375  10.390625 16.390625  C 10.484375 16.296875  10.604166666666657 16.25  10.75 16.25  L 13.25 16.25  C 13.395833333333343 16.25  13.515625 16.296875  13.609375 16.390625  Z M 16.0390625 5.6484375  C 17.1796875 6.580729166666686  17.75 7.697916666666686  17.75 9  C 17.75 9.520833333333314  17.671875 9.989583333333314  17.515625 10.40625  C 17.359375 10.822916666666686  17.122395833333343 11.182291666666686  16.8046875 11.484375  C 16.486979166666657 11.786458333333314  16.216145833333343 12.015625  15.9921875 12.171875  C 15.768229166666657 12.328125  15.458333333333343 12.515625  15.0625 12.734375  C 14.729166666666657 12.921875  14.486979166666657 13.067708333333314  14.3359375 13.171875  C 14.184895833333343 13.276041666666686  14.049479166666657 13.401041666666686  13.9296875 13.546875  C 13.809895833333343 13.692708333333314  13.75 13.84375  13.75 14  L 13.75 14.5  C 13.75 14.645833333333314  13.703125 14.765625  13.609375 14.859375  C 13.515625 14.953125  13.395833333333343 15  13.25 15  L 10.75 15  C 10.604166666666657 15  10.484375 14.953125  10.390625 14.859375  C 10.296875 14.765625  10.25 14.645833333333314  10.25 14.5  L 10.25 13.4375  C 10.25 13.072916666666686  10.3046875 12.736979166666686  10.4140625 12.4296875  C 10.5234375 12.122395833333314  10.6484375 11.875  10.7890625 11.6875  C 10.9296875 11.5  11.1328125 11.315104166666686  11.3984375 11.1328125  C 11.6640625 10.950520833333314  11.877604166666657 10.817708333333314  12.0390625 10.734375  C 12.200520833333343 10.651041666666686  12.432291666666657 10.541666666666686  12.734375 10.40625  C 13.286458333333343 10.145833333333314  13.677083333333343 9.921875  13.90625 9.734375  C 14.135416666666657 9.546875  14.25 9.291666666666686  14.25 8.96875  C 14.25 8.53125  14.0234375 8.158854166666686  13.5703125 7.8515625  C 13.1171875 7.544270833333314  12.619791666666657 7.390625  12.078125 7.390625  C 11.494791666666657 7.390625  11 7.53125  10.59375 7.8125  C 10.291666666666657 8.020833333333314  9.875 8.453125  9.34375 9.109375  C 9.25 9.234375  9.119791666666657 9.296875  8.953125 9.296875  C 8.838541666666657 9.296875  8.739583333333343 9.265625  8.65625 9.203125  L 6.96875 7.921875  C 6.864583333333343 7.848958333333314  6.802083333333343 7.744791666666686  6.78125 7.609375  C 6.760416666666657 7.473958333333314  6.786458333333343 7.354166666666686  6.859375 7.25  C 8.130208333333343 5.25  9.947916666666657 4.25  12.3125 4.25  C 13.65625 4.25  14.8984375 4.716145833333314  16.0390625 5.6484375  Z M 15.8828125 2.796875  C 14.6484375 2.265625  13.354166666666657 2  12 2  C 10.645833333333343 2  9.3515625 2.265625  8.1171875 2.796875  C 6.8828125 3.328125  5.8203125 4.0390625  4.9296875 4.9296875  C 4.0390625 5.8203125  3.328125 6.8828125  2.796875 8.1171875  C 2.265625 9.3515625  2 10.645833333333314  2 12  C 2 13.354166666666686  2.265625 14.6484375  2.796875 15.8828125  C 3.328125 17.1171875  4.0390625 18.1796875  4.9296875 19.0703125  C 5.8203125 19.9609375  6.8828125 20.671875  8.1171875 21.203125  C 9.3515625 21.734375  10.645833333333343 22  12 22  C 13.354166666666657 22  14.6484375 21.734375  15.8828125 21.203125  C 17.1171875 20.671875  18.1796875 19.9609375  19.0703125 19.0703125  C 19.9609375 18.1796875  20.671875 17.1171875  21.203125 15.8828125  C 21.734375 14.6484375  22 13.354166666666686  22 12  C 22 10.645833333333314  21.734375 9.3515625  21.203125 8.1171875  C 20.671875 6.8828125  19.9609375 5.8203125  19.0703125 4.9296875  C 18.1796875 4.0390625  17.1171875 3.328125  15.8828125 2.796875  Z M 22.390625 5.9765625  C 23.463541666666657 7.815104166666686  24 9.822916666666686  24 12  C 24 14.177083333333314  23.463541666666657 16.184895833333314  22.390625 18.0234375  C 21.317708333333343 19.861979166666686  19.861979166666657 21.317708333333314  18.0234375 22.390625  C 16.184895833333343 23.463541666666686  14.177083333333343 24  12 24  C 9.822916666666657 24  7.815104166666657 23.463541666666686  5.9765625 22.390625  C 4.138020833333343 21.317708333333314  2.682291666666657 19.861979166666686  1.609375 18.0234375  C 0.5364583333333428 16.184895833333314  0 14.177083333333314  0 12  C 0 9.822916666666686  0.5364583333333428 7.815104166666686  1.609375 5.9765625  C 2.682291666666657 4.138020833333314  4.138020833333343 2.6822916666666856  5.9765625 1.609375  C 7.815104166666657 0.5364583333333144  9.822916666666657 0  12 0  C 14.177083333333343 0  16.184895833333343 0.5364583333333144  18.0234375 1.609375  C 19.861979166666657 2.6822916666666856  21.317708333333343 4.138020833333314  22.390625 5.9765625  Z " fill-rule="nonzero" fill="#ffc71c" stroke="none" transform="matrix(1 0 0 1 20 24 )" />
  </g>
</svg>