<?xml version="1.0" encoding="utf-8"?>
<svg version="1.1" xmlns:xlink="http://www.w3.org/1999/xlink" width="64px" height="32px" xmlns="http://www.w3.org/2000/svg">
  <g transform="matrix(1 0 0 1 -295 -126 )">
    <path d="M 295.5 130  A 3.5 3.5 0 0 1 299 126.5 L 355 126.5  A 3.5 3.5 0 0 1 358.5 130 L 358.5 154  A 3.5 3.5 0 0 1 355 157.5 L 299 157.5  A 3.5 3.5 0 0 1 295.5 154 L 295.5 130  Z " fill-rule="nonzero" fill="#ffffff" stroke="none" fill-opacity="0.09803921568627451" />
    <path d="M 295.5 130  A 3.5 3.5 0 0 1 299 126.5 L 355 126.5  A 3.5 3.5 0 0 1 358.5 130 L 358.5 154  A 3.5 3.5 0 0 1 355 157.5 L 299 157.5  A 3.5 3.5 0 0 1 295.5 154 L 295.5 130  Z " stroke-width="1" stroke="#3dd4a7" fill="none" />
  </g>
</svg>