<?xml version="1.0" encoding="utf-8"?>
<svg version="1.1" xmlns:xlink="http://www.w3.org/1999/xlink" width="76px" height="44px" xmlns="http://www.w3.org/2000/svg">
  <defs>
    <filter x="289px" y="120px" width="76px" height="44px" filterUnits="userSpaceOnUse" id="filter784">
      <feOffset dx="0" dy="0" in="SourceAlpha" result="shadowOffsetInner" />
      <feGaussianBlur stdDeviation="3" in="shadowOffsetInner" result="shadowGaussian" />
      <feComposite in2="shadowGaussian" operator="atop" in="SourceAlpha" result="shadowComposite" />
      <feColorMatrix type="matrix" values="0 0 0 0 0.2392156862745098  0 0 0 0 0.8313725490196078  0 0 0 0 0.6549019607843137  0 0 0 0.4980392156862745 0  " in="shadowComposite" />
    </filter>
    <g id="widget785">
      <path d="M 295.5 130  A 3.5 3.5 0 0 1 299 126.5 L 355 126.5  A 3.5 3.5 0 0 1 358.5 130 L 358.5 154  A 3.5 3.5 0 0 1 355 157.5 L 299 157.5  A 3.5 3.5 0 0 1 295.5 154 L 295.5 130  Z " fill-rule="nonzero" fill="#ffffff" stroke="none" fill-opacity="0.09803921568627451" />
      <path d="M 295.5 130  A 3.5 3.5 0 0 1 299 126.5 L 355 126.5  A 3.5 3.5 0 0 1 358.5 130 L 358.5 154  A 3.5 3.5 0 0 1 355 157.5 L 299 157.5  A 3.5 3.5 0 0 1 295.5 154 L 295.5 130  Z " stroke-width="1" stroke="#3dd4a7" fill="none" />
    </g>
  </defs>
  <g transform="matrix(1 0 0 1 -289 -120 )">
    <use xlink:href="#widget785" filter="url(#filter784)" />
    <use xlink:href="#widget785" />
  </g>
</svg>