<?xml version="1.0" encoding="utf-8"?>
<svg version="1.1" xmlns:xlink="http://www.w3.org/1999/xlink" width="20px" height="20px" xmlns="http://www.w3.org/2000/svg">
  <g transform="matrix(1 0 0 1 -20 -15 )">
    <path d="M 20 10  C 20 15.522999999999996  15.522999999999996 20  10 20  C 4.477 20  0 15.522999999999996  0 10  C 0 4.477000000000004  4.477 0  10 0  C 15.522999999999996 0  20 4.477000000000004  20 10  Z M 10 17.999999999999996  C 14.418277998646346 17.999999999999996  18 14.41827799864635  18 10  C 18 5.581722001353651  14.418277998646346 2.0000000000000053  10 2.0000000000000053  C 5.581722001353654 2.0000000000000053  2 5.581722001353651  2 10  C 2 14.41827799864635  5.581722001353654 17.999999999999996  10 17.999999999999996  Z M 16.073999999999998 6.9289999999999985  L 9.003 13.999999999999996  L 4.759999999999998 9.756999999999994  L 6.173999999999996 8.342999999999996  L 9.003 11.171999999999997  L 14.659000000000006 5.515000000000001  L 16.073999999999998 6.9289999999999985  Z " fill-rule="nonzero" fill="#28d094" stroke="none" transform="matrix(1 0 0 1 20 15 )" />
  </g>
</svg>