<?xml version="1.0" encoding="utf-8"?>
<svg version="1.1" xmlns:xlink="http://www.w3.org/1999/xlink" width="14px" height="18px" xmlns="http://www.w3.org/2000/svg">
  <g transform="matrix(1 0 0 1 -400 -20 )">
    <path d="M 13.588235286169983 6.588235282013692  L 13.588235286169983 13.725764673695025  L 13.917647057233996 14.164705842496716  C 13.97110322862061 14.23598073575458  14 14.322671047975575  14 14.411764665330963  C 14 14.639176028715163  13.815646664617915 14.823529363620878  13.58823530064609 14.823529363620878  L 0.4117647138300171 14.823529363620878  C 0.18435333538208631 14.823529363620878  0 14.639176028715163  0 14.411764665330963  C 0 14.322671047975582  0.02889677137939195 14.23598073575458  0.08235294276600413 14.164705842496716  L 0.4117647138300171 13.725764673695025  L 0.4117647138300171 6.588235282013692  C 0.4117647138300189 2.9496534145669564  3.361418123151207 0  7 0  C 10.638581876848797 0  13.588235286169983 2.9496534145669564  13.588235286169983 6.588235282013692  Z M 4.941176464627485 15.647058779502181  L 9.058823535372515 15.647058779502181  C 9.058823535372515 16.784115661129462  8.137056841178953 17.705882352941174  7 17.705882352941174  C 5.862943158821041 17.705882352941174  4.941176464627485 16.784115661129462  4.941176464627485 15.647058822888646  Z " fill-rule="nonzero" fill="#3dd4a7" stroke="none" transform="matrix(1 0 0 1 400 20 )" />
  </g>
</svg>