<?xml version="1.0" encoding="utf-8"?>
<svg version="1.1" xmlns:xlink="http://www.w3.org/1999/xlink" width="20px" height="20px" xmlns="http://www.w3.org/2000/svg">
  <g transform="matrix(1 0 0 1 -360 -18 )">
    <path d="M 17.216454545454546 6.363636363636363  L 18.18181818181818 6.363636363636363  C 19.186 6.363636363636363  20 7.177663636363636  20 8.181818181818182  L 20 11.818181818181818  C 20 12.822363636363637  19.186 13.636363636363635  18.18181818181818 13.636363636363635  L 17.216454545454546 13.636363636363635  C 16.769090909090913 17.22390909090909  13.708727272727273 20  10 20  L 10 18.18181818181818  C 13.012454545454545 18.18181818181818  15.454545454545453 15.739727272727272  15.454545454545453 12.727272727272727  L 15.454545454545453 7.272727272727273  C 15.454545454545453 4.260263636363636  13.012454545454545 1.8181818181818183  10 1.8181818181818183  C 6.987536363636363 1.8181818181818183  4.545454545454545 4.260263636363636  4.545454545454545 7.272727272727273  L 4.545454545454545 13.636363636363635  L 1.8181818181818183 13.636363636363635  C 0.8140272727272726 13.636363636363635  0 12.822363636363637  0 11.818181818181818  L 0 8.181818181818182  C 0 7.177663636363636  0.8140272727272726 6.363636363636363  1.8181818181818183 6.363636363636363  L 2.7835363636363635 6.363636363636363  C 3.2309 2.7760818181818174  6.291254545454546 0  10 0  C 13.708727272727273 0  16.769090909090913 2.7760818181818174  17.216454545454546 6.363636363636363  Z M 10 14.545454545454547  C 8.584 14.545454545454547  7.262563636363637 14.140818181818183  6.144945454545454 13.440818181818182  L 7.108709090909091 11.89881818181818  C 7.946918181818181 12.423818181818183  8.937999999999999 12.727272727272727  10 12.727272727272727  C 11.062000000000001 12.727272727272727  12.053090909090908 12.423818181818183  12.891272727272726 11.89881818181818  L 13.85509090909091 13.440818181818182  C 12.737454545454545 14.140818181818183  11.416000000000002 14.545454545454547  10 14.545454545454547  Z " fill-rule="nonzero" fill="#3dd4a7" stroke="none" transform="matrix(1 0 0 1 360 18 )" />
  </g>
</svg>