<?xml version="1.0" encoding="utf-8"?>
<svg version="1.1" xmlns:xlink="http://www.w3.org/1999/xlink" width="29px" height="29px" xmlns="http://www.w3.org/2000/svg">
  <g transform="matrix(1 0 0 1 -40 -13 )">
    <path d="M 23.751302083333332 22.014322916666668  C 24.028211805555557 21.347222222222218  24.166666666666668 20.711588541666664  24.166666666666668 20.107421875  C 24.166666666666668 19.96896701388889  24.154079861111114 19.86827256944444  24.12890625 19.805338541666664  C 24.103732638888893 19.74240451388889  23.990451388888893 19.638563368055554  23.7890625 19.493815104166664  C 23.587673611111114 19.349066840277775  23.332790798611114 19.191731770833336  23.0244140625 19.021809895833336  C 22.716037326388893 18.851888020833336  22.417100694444446 18.685112847222218  22.127604166666668 18.521484375  C 21.838107638888893 18.357855902777775  21.5517578125 18.200520833333336  21.2685546875 18.049479166666664  C 20.9853515625 17.8984375  20.805989583333332 17.804036458333336  20.73046875 17.766276041666664  C 20.667534722222225 17.728515625  20.547960069444446 17.64670138888889  20.371744791666668 17.520833333333336  C 20.195529513888893 17.394965277777775  20.038194444444446 17.30056423611111  19.899739583333332 17.237630208333336  C 19.761284722222225 17.174696180555554  19.629123263888893 17.143229166666664  19.503255208333332 17.143229166666664  C 19.314453125 17.143229166666664  19.08474392361111 17.27224392361111  18.814127604166668 17.5302734375  C 18.543511284722225 17.78830295138889  18.294921875000004 18.07150607638889  18.068359375 18.3798828125  C 17.841796875000004 18.68825954861111  17.599500868055557 18.97146267361111  17.341471354166668 19.2294921875  C 17.08344184027778 19.48752170138889  16.872612847222225 19.616536458333336  16.708984375 19.616536458333336  C 16.62087673611111 19.616536458333336  16.51703559027778 19.59450954861111  16.3974609375 19.550455729166664  C 16.277886284722225 19.506401909722218  16.180338541666668 19.465494791666664  16.104817708333332 19.427734375  C 16.029296875 19.389973958333336  15.92230902777778 19.33018663194444  15.783854166666668 19.248372395833336  C 15.645399305555555 19.166558159722218  15.557291666666668 19.11306423611111  15.51953125 19.087890625  C 14.2734375 18.39561631944444  13.203559027777779 17.599500868055554  12.309895833333334 16.699544270833336  C 11.41623263888889 15.799587673611112  10.616970486111112 14.7265625  9.912109375 13.48046875  C 9.88693576388889 13.442708333333332  9.833441840277779 13.354600694444445  9.751627604166666 13.216145833333332  C 9.669813368055557 13.07769097222222  9.610026041666668 12.970703125  9.572265625 12.895182291666668  C 9.534505208333334 12.819661458333332  9.493598090277779 12.722113715277777  9.449544270833334 12.6025390625  C 9.40549045138889 12.48296440972222  9.383463541666666 12.379123263888888  9.383463541666666 12.291015625  C 9.383463541666666 12.127387152777777  9.512478298611112 11.91655815972222  9.7705078125 11.658528645833332  C 10.02853732638889 11.400499131944445  10.31174045138889 11.158203125  10.6201171875 10.931640625  C 10.928493923611112 10.705078125  11.211697048611112 10.456488715277777  11.4697265625 10.185872395833332  C 11.72775607638889 9.915256076388888  11.856770833333334 9.685546875  11.856770833333334 9.496744791666668  C 11.856770833333334 9.370876736111109  11.825303819444446 9.238715277777777  11.762369791666666 9.100260416666668  C 11.69943576388889 8.961805555555554  11.605034722222223 8.804470486111109  11.479166666666666 8.628255208333332  C 11.353298611111112 8.452039930555554  11.271484375 8.332465277777777  11.233723958333334 8.26953125  C 11.195963541666666 8.194010416666668  11.1015625 8.0146484375  10.950520833333334 7.7314453125  C 10.799479166666666 7.4482421875  10.642144097222223 7.161892361111109  10.478515625 6.872395833333332  C 10.314887152777779 6.582899305555553  10.148111979166666 6.283962673611109  9.978190104166666 5.9755859375  C 9.808268229166666 5.667209201388885  9.650933159722221 5.412326388888885  9.506184895833334 5.2109375  C 9.361436631944446 5.009548611111109  9.257595486111112 4.896267361111109  9.194661458333334 4.87109375  C 9.131727430555555 4.845920138888885  9.031032986111112 4.833333333333332  8.892578125 4.833333333333332  C 8.288411458333334 4.833333333333332  7.652777777777778 4.971788194444444  6.985677083333333 5.248697916666668  C 6.406684027777779 5.513020833333332  5.903211805555556 6.107747395833332  5.475260416666667 7.032877604166668  C 5.047309027777779 7.9580078125  4.833333333333333 8.779296875  4.833333333333333 9.496744791666668  C 4.833333333333333 9.698133680555555  4.849066840277779 9.912109375  4.880533854166667 10.138671875  C 4.912000868055556 10.365234375  4.943467881944445 10.55718315972222  4.974934895833333 10.714518229166668  C 5.006401909722223 10.871853298611109  5.063042534722223 11.079535590277777  5.144856770833333 11.337565104166668  C 5.226671006944445 11.595594618055555  5.289605034722223 11.78125  5.333658854166667 11.89453125  C 5.377712673611112 12.0078125  5.456380208333333 12.215494791666668  5.569661458333333 12.517578125  C 5.682942708333333 12.819661458333332  5.752170138888889 13.008463541666668  5.77734375 13.083984375  C 6.532552083333333 15.148220486111112  7.895073784722222 17.16525607638889  9.864908854166666 19.135091145833336  C 11.834743923611112 21.104926215277775  13.85177951388889 22.467447916666668  15.916015625 23.22265625  C 15.991536458333336 23.247829861111107  16.180338541666668 23.317057291666668  16.482421875 23.430338541666668  C 16.784505208333336 23.543619791666668  16.992187500000004 23.622287326388893  17.10546875 23.666341145833332  C 17.218750000000004 23.710394965277775  17.404405381944446 23.773328993055557  17.662434895833332 23.855143229166668  C 17.920464409722225 23.936957465277775  18.128146701388893 23.993598090277775  18.285481770833332 24.025065104166668  C 18.44281684027778 24.056532118055557  18.634765625000004 24.087999131944443  18.861328125 24.119466145833332  C 19.087890625000004 24.150933159722225  19.301866319444446 24.166666666666668  19.503255208333332 24.166666666666668  C 20.220703125 24.166666666666668  21.0419921875 23.952690972222225  21.967122395833332 23.524739583333332  C 22.892252604166668 23.096788194444443  23.486979166666668 22.593315972222225  23.751302083333332 22.014322916666668  Z M 27.404622395833332 1.5953776041666679  C 28.468207465277775 2.6589626736111085  29 3.939670138888885  29 5.4375  L 29 23.5625  C 29 25.060329861111107  28.468207465277775 26.341037326388893  27.404622395833332 27.404622395833332  C 26.341037326388893 28.468207465277775  25.060329861111114 29  23.5625 29  L 5.4375 29  C 3.939670138888889 29  2.6589626736111116 28.468207465277775  1.5953776041666667 27.404622395833332  C 0.5317925347222221 26.341037326388893  0 25.060329861111107  0 23.5625  L 0 5.4375  C 0 3.939670138888885  0.5317925347222221 2.6589626736111085  1.5953776041666667 1.5953776041666679  C 2.6589626736111116 0.5317925347222204  3.939670138888889 0  5.4375 0  L 23.5625 0  C 25.060329861111114 0  26.341037326388893 0.5317925347222204  27.404622395833332 1.5953776041666679  Z " fill-rule="nonzero" fill="#ffffff" stroke="none" transform="matrix(1 0 0 1 40 13 )" />
  </g>
</svg>