<?xml version="1.0" encoding="utf-8"?>
<svg version="1.1" xmlns:xlink="http://www.w3.org/1999/xlink" width="26px" height="26px" xmlns="http://www.w3.org/2000/svg">
  <g transform="matrix(1 0 0 1 -189 -15 )">
    <path d="M 19.127604166666668 15.208984375  C 19.263020833333332 15.47417534722222  19.28559027777778 15.74782986111111  19.1953125 16.029947916666664  C 18.77777777777778 17.395399305555554  17.999131944444446 18.49565972222222  16.859375 19.330729166666664  C 15.719618055555557 20.16579861111111  14.433159722222223 20.583333333333332  13 20.583333333333332  C 11.566840277777779 20.583333333333332  10.280381944444445 20.16579861111111  9.140625 19.330729166666664  C 8.000868055555557 18.49565972222222  7.222222222222222 17.395399305555554  6.8046875 16.029947916666664  C 6.714409722222222 15.74782986111111  6.736979166666666 15.47417534722222  6.872395833333334 15.208984375  C 7.0078125 14.943793402777775  7.222222222222222 14.766059027777775  7.515625 14.67578125  C 7.797743055555556 14.58550347222222  8.071397569444445 14.608072916666664  8.336588541666666 14.743489583333336  C 8.60177951388889 14.87890625  8.77951388888889 15.09331597222222  8.869791666666666 15.38671875  C 9.151909722222223 16.289496527777775  9.673828125 17.020182291666664  10.435546875 17.578776041666664  C 11.197265625 18.137369791666664  12.052083333333334 18.416666666666664  13 18.416666666666664  C 13.947916666666668 18.416666666666664  14.802734375000004 18.137369791666664  15.564453125 17.578776041666664  C 16.326171875000004 17.020182291666664  16.84809027777778 16.289496527777775  17.130208333333332 15.38671875  C 17.220486111111114 15.09331597222222  17.401041666666668 14.87890625  17.671875 14.743489583333336  C 17.942708333333332 14.608072916666664  18.21918402777778 14.58550347222222  18.501302083333332 14.67578125  C 18.78342013888889 14.766059027777775  18.9921875 14.943793402777775  19.127604166666668 15.208984375  Z M 10.198567708333334 7.134765625  C 10.621744791666666 7.557942708333332  10.833333333333334 8.068576388888888  10.833333333333334 8.666666666666668  C 10.833333333333334 9.264756944444443  10.621744791666666 9.775390624999996  10.198567708333334 10.198567708333332  C 9.775390625 10.621744791666668  9.264756944444445 10.833333333333332  8.666666666666666 10.833333333333332  C 8.06857638888889 10.833333333333332  7.557942708333334 10.621744791666668  7.134765625 10.198567708333332  C 6.711588541666666 9.775390624999996  6.5 9.264756944444443  6.5 8.666666666666668  C 6.5 8.068576388888888  6.711588541666666 7.557942708333332  7.134765625 7.134765625  C 7.557942708333334 6.711588541666668  8.06857638888889 6.5  8.666666666666666 6.5  C 9.264756944444445 6.5  9.775390625 6.711588541666668  10.198567708333334 7.134765625  Z M 18.865234375 7.134765625  C 19.288411458333332 7.557942708333332  19.5 8.068576388888888  19.5 8.666666666666668  C 19.5 9.264756944444443  19.288411458333332 9.775390624999996  18.865234375 10.198567708333332  C 18.442057291666668 10.621744791666668  17.931423611111114 10.833333333333332  17.333333333333332 10.833333333333332  C 16.735243055555557 10.833333333333332  16.224609375 10.621744791666668  15.801432291666668 10.198567708333332  C 15.378255208333332 9.775390624999996  15.166666666666668 9.264756944444443  15.166666666666668 8.666666666666668  C 15.166666666666668 8.068576388888888  15.378255208333332 7.557942708333332  15.801432291666668 7.134765625  C 16.224609375 6.711588541666668  16.735243055555557 6.5  17.333333333333332 6.5  C 17.931423611111114 6.5  18.442057291666668 6.711588541666668  18.865234375 7.134765625  Z M 22.970052083333332 17.206380208333336  C 23.545572916666668 15.869140625  23.833333333333332 14.46701388888889  23.833333333333332 13  C 23.833333333333332 11.53298611111111  23.545572916666668 10.130859375  22.970052083333332 8.793619791666668  C 22.39453125 7.456380208333332  21.624348958333332 6.305338541666668  20.659505208333332 5.340494791666668  C 19.694661458333332 4.375651041666668  18.543619791666668 3.60546875  17.206380208333332 3.029947916666668  C 15.869140625 2.454427083333332  14.46701388888889 2.166666666666668  13 2.166666666666668  C 11.53298611111111 2.166666666666668  10.130859375 2.454427083333332  8.793619791666666 3.029947916666668  C 7.456380208333334 3.60546875  6.305338541666667 4.375651041666668  5.340494791666667 5.340494791666668  C 4.375651041666667 6.305338541666668  3.60546875 7.456380208333332  3.0299479166666665 8.793619791666668  C 2.4544270833333335 10.130859375  2.1666666666666665 11.53298611111111  2.1666666666666665 13  C 2.1666666666666665 14.46701388888889  2.4544270833333335 15.869140625  3.0299479166666665 17.206380208333336  C 3.60546875 18.543619791666664  4.375651041666667 19.694661458333332  5.340494791666667 20.659505208333332  C 6.305338541666667 21.624348958333332  7.456380208333334 22.39453125  8.793619791666666 22.970052083333332  C 10.130859375 23.545572916666668  11.53298611111111 23.833333333333332  13 23.833333333333332  C 14.46701388888889 23.833333333333332  15.869140625 23.545572916666668  17.206380208333332 22.970052083333332  C 18.543619791666668 22.39453125  19.694661458333332 21.624348958333332  20.659505208333332 20.659505208333332  C 21.624348958333332 19.694661458333332  22.39453125 18.543619791666664  22.970052083333332 17.206380208333336  Z M 24.256510416666668 6.474609375  C 25.418836805555554 8.46636284722222  26 10.641493055555552  26 13  C 26 15.358506944444445  25.418836805555554 17.533637152777775  24.256510416666668 19.525390625  C 23.09418402777778 21.51714409722222  21.51714409722222 23.09418402777778  19.525390625 24.256510416666668  C 17.53363715277778 25.418836805555557  15.358506944444445 26  13 26  C 10.641493055555557 26  8.466362847222223 25.418836805555557  6.474609375 24.256510416666668  C 4.482855902777779 23.09418402777778  2.9058159722222223 21.51714409722222  1.7434895833333335 19.525390625  C 0.5811631944444444 17.533637152777775  0 15.358506944444445  0 13  C 0 10.641493055555552  0.5811631944444444 8.46636284722222  1.7434895833333335 6.474609375  C 2.9058159722222223 4.482855902777778  4.482855902777779 2.9058159722222197  6.474609375 1.7434895833333324  C 8.466362847222223 0.5811631944444422  10.641493055555557 0  13 0  C 15.358506944444445 0  17.53363715277778 0.5811631944444422  19.525390625 1.7434895833333324  C 21.51714409722222 2.9058159722222197  23.09418402777778 4.482855902777778  24.256510416666668 6.474609375  Z " fill-rule="nonzero" fill="#ffffff" stroke="none" transform="matrix(1 0 0 1 189 15 )" />
  </g>
</svg>