<?xml version="1.0" encoding="utf-8"?>
<svg version="1.1" xmlns:xlink="http://www.w3.org/1999/xlink" width="76px" height="52px" xmlns="http://www.w3.org/2000/svg">
  <defs>
    <filter x="14px" y="315px" width="76px" height="52px" filterUnits="userSpaceOnUse" id="filter768">
      <feOffset dx="0" dy="0" in="SourceAlpha" result="shadowOffsetInner" />
      <feGaussianBlur stdDeviation="3" in="shadowOffsetInner" result="shadowGaussian" />
      <feComposite in2="shadowGaussian" operator="atop" in="SourceAlpha" result="shadowComposite" />
      <feColorMatrix type="matrix" values="0 0 0 0 0.16078431372549018  0 0 0 0 0.5176470588235293  0 0 0 0 0.9725490196078431  0 0 0 0.4980392156862745 0  " in="shadowComposite" />
    </filter>
    <g id="widget769">
      <path d="M 20.5 325  A 3.5 3.5 0 0 1 24 321.5 L 80 321.5  A 3.5 3.5 0 0 1 83.5 325 L 83.5 357  A 3.5 3.5 0 0 1 80 360.5 L 24 360.5  A 3.5 3.5 0 0 1 20.5 357 L 20.5 325  Z " fill-rule="nonzero" fill="#ffffff" stroke="none" fill-opacity="0.09803921568627451" />
      <path d="M 20.5 325  A 3.5 3.5 0 0 1 24 321.5 L 80 321.5  A 3.5 3.5 0 0 1 83.5 325 L 83.5 357  A 3.5 3.5 0 0 1 80 360.5 L 24 360.5  A 3.5 3.5 0 0 1 20.5 357 L 20.5 325  Z " stroke-width="1" stroke="#1877f2" fill="none" />
    </g>
  </defs>
  <g transform="matrix(1 0 0 1 -14 -315 )">
    <use xlink:href="#widget769" filter="url(#filter768)" />
    <use xlink:href="#widget769" />
  </g>
</svg>