<?xml version="1.0" encoding="utf-8"?>
<svg version="1.1" xmlns:xlink="http://www.w3.org/1999/xlink" width="18px" height="18px" xmlns="http://www.w3.org/2000/svg">
  <defs>
    <linearGradient gradientUnits="userSpaceOnUse" x1="9" y1="18" x2="9" y2="0" id="LinearGradient770">
      <stop id="Stop771" stop-color="#fadb6b" offset="0" />
      <stop id="Stop772" stop-color="#dbda75" offset="0.17" />
      <stop id="Stop773" stop-color="#3dd4a7" offset="1" />
    </linearGradient>
  </defs>
  <g transform="matrix(1 0 0 1 -20 -19 )">
    <path d="M 0 7.714285714285779  C 0 3.4560000000000173  3.4559999999999604 0  7.714285714285694 0  C 11.972571428571399 0  15.428571428571473 3.4560000000000173  15.428571428571473 7.714285714285779  C 15.428571428571473 11.972571428571428  11.972571428571399 15.428571428571445  7.714285714285694 15.428571428571445  C 3.4559999999999604 15.428571428571445  0 11.972571428571428  0 7.714285714285779  Z M 1.7142857142857224 7.714285714285779  C 1.7142857142857224 11.028857142857134  4.3988571428571674 13.714285714285722  7.714285714285694 13.714285714285722  C 11.028857142857134 13.714285714285722  13.714285714285722 11.028857142857134  13.714285714285722 7.714285714285779  C 13.714285714285722 4.398857142857082  11.028857142857134 1.7142857142857224  7.714285714285694 1.7142857142857224  C 4.3988571428571674 1.7142857142857224  1.7142857142857224 4.398857142857082  1.7142857142857224 7.714285714285779  Z M 13.77514285714284 14.987142857142885  L 14.987142857142885 13.77514285714284  L 17.411999999999978 16.199142857142874  L 16.199142857142903 17.411999999999978  L 13.77514285714284 14.987142857142885  Z " fill-rule="nonzero" fill="url(#LinearGradient770)" stroke="none" transform="matrix(1 0 0 1 20 19 )" />
  </g>
</svg>