<?xml version="1.0" encoding="utf-8"?>
<svg version="1.1" xmlns:xlink="http://www.w3.org/1999/xlink" width="20px" height="18px" xmlns="http://www.w3.org/2000/svg">
  <defs>
    <linearGradient gradientUnits="userSpaceOnUse" x1="10" y1="18" x2="10" y2="0" id="LinearGradient774">
      <stop id="Stop775" stop-color="#fadb6b" offset="0" />
      <stop id="Stop776" stop-color="#dbda75" offset="0.17" />
      <stop id="Stop777" stop-color="#3dd4a7" offset="1" />
    </linearGradient>
  </defs>
  <g transform="matrix(1 0 0 1 -22 -22 )">
    <path d="M 16.42818181818182 12.086010000000002  L 11.928454545454546 7.63128  C 11.573454545454547 7.279739999999999  10.997818181818182 7.279739999999999  10.642818181818184 7.63128  L 10 8.267669999999999  C 9.289909090909092 8.97057  8.138718181818183 8.97057  7.428672727272727 8.267669999999999  C 6.7186272727272724 7.56468  6.7186272727272724 6.4249920000000005  7.428672727272727 5.722047  L 12.547454545454544 0.653112  C 14.460090909090908 0.224757  16.54618181818182 0.7476750000000001  18.035272727272726 2.2218750000000003  C 20.234727272727273 4.399299  20.337818181818182 7.86618  18.344727272727276 10.164510000000002  L 16.42818181818182 12.086010000000002  Z M 1.9646636363636363 10.49499  C -0.34298 8.21043  -0.34298 4.506435  1.9646636363636363 2.2218750000000003  C 3.9404727272727276 0.26582400000000006  6.967372727272728 -0.015452999999999916  9.245454545454546 1.3780439999999998  L 6.1430181818181815 4.449258  C 4.722936363636363 5.855148000000001  4.722936363636363 8.13456  6.1430181818181815 9.54045  C 7.5200818181818185 10.90368  9.726818181818182 10.94499  11.154090909090911 9.66438  L 11.285636363636362 9.54045  L 15.142545454545456 13.35879  L 11.285636363636362 17.17722  C 10.575545454545454 17.88012  9.424363636363637 17.88012  8.714363636363636 17.17722  L 1.9646636363636363 10.49499  Z " fill-rule="nonzero" fill="url(#LinearGradient774)" stroke="none" transform="matrix(1 0 0 1 22 22 )" />
  </g>
</svg>