<?xml version="1.0" encoding="utf-8"?>
<svg version="1.1" xmlns:xlink="http://www.w3.org/1999/xlink" width="16px" height="17px" xmlns="http://www.w3.org/2000/svg">
  <g transform="matrix(1 0 0 1 -24 -114 )">
    <path d="M 15.999998034034142 8.154349030470915  C 16.00066582950232 7.699107484290107  15.82552945372905 7.261425417008518  15.511577041416261 6.933739612188368  L 9.018946260237145 0.25429362880886386  C 8.860827037639972 0.093823625618094  8.645588442003689 0.003561531167453549  8.421051596860075 0.003561531167453549  C 8.196514751716462 0.003561531167453549  7.981276156080178 0.093823625618094  7.823156933483012 0.25429362880886386  L 1.3305261523038925 6.94221606648199  C 1.0131832457685133 7.2642242026041774  0.8372655836935097 7.700805759031673  0.8421051596860075 8.154349030470915  L 0.8421051596860075 15.257617728531857  C 0.8407502631724021 16.158664709802114  1.539880107308139 16.903351978641528  2.4336839114925635 17  L 14.408419282227587 17  C 15.302223086412008 16.903351978641528  16.001352930547746 16.158664709802114  15.999998034034142 15.257617728531857  L 15.999998034034142 8.154349030470915  Z M 10.10526191623209 15.257617728531857  L 6.73684127748806 15.257617728531857  L 6.73684127748806 10.171745152354568  L 10.10526191623209 10.171745152354568  L 10.10526191623209 15.257617728531857  Z M 14.315787714662129 8.154349030470915  L 14.315787714662129 15.257617728531857  L 11.789472235604105 15.257617728531857  L 11.789472235604105 9.324099722991688  C 11.789472235604105 8.855958079090792  11.412448913366505 8.476454293628809  10.947367075918098 8.476454293628809  L 5.8947361178020525 8.476454293628809  C 5.429654280353645 8.476454293628809  5.052630958116045 8.855958079090792  5.052630958116045 9.324099722991688  L 5.052630958116045 15.257617728531857  L 2.5263154790580225 15.257617728531857  L 2.5263154790580225 8.120443213296399  L 8.421051596860075 2.0597783933518037  L 14.315787714662129 8.154349030470915  Z " fill-rule="nonzero" fill="#ffffff" stroke="none" transform="matrix(1 0 0 1 24 114 )" />
  </g>
</svg>