<?xml version="1.0" encoding="utf-8"?>
<svg version="1.1" xmlns:xlink="http://www.w3.org/1999/xlink" width="16px" height="18px" xmlns="http://www.w3.org/2000/svg">
  <g transform="matrix(1 0 0 1 -24 -177 )">
    <path d="M 0.3498222222222221 17.03142  C 1.8984533333333335 14.91723  4.744853333333334 13.5  7.999911111111111 13.5  C 11.255377777777777 13.5  14.102133333333333 14.917589999999999  15.650666666666666 17.032230000000002  L 14.013333333333334 17.8164  C 12.753155555555557 16.30413  10.530933333333333 15.299999999999999  7.999911111111111 15.299999999999999  C 5.4688711111111115 15.299999999999999  3.2466844444444445 16.30413  1.9864800000000002 17.8164  L 0.3498222222222221 17.03142  Z M 7.8071111111111104 0.004158000000000062  L 7.999911111111111 0  C 10.45448888888889 0  12.444355555555555 2.014722  12.444355555555555 4.5  L 12.444355555555555 7.2  C 12.444355555555555 9.61992  10.557866666666666 11.593620000000001  8.19271111111111 11.69586  L 7.999911111111111 11.700000000000001  C 5.545306666666666 11.700000000000001  3.5554666666666668 9.685260000000001  3.5554666666666668 7.2  L 3.5554666666666668 4.5  C 3.5554666666666668 2.0801250000000002  5.441955555555555 0.10636200000000016  7.8071111111111104 0.004158000000000062  Z M 10.666577777777778 4.5  C 10.666577777777778 3.008835  9.472622222222222 1.8  7.999911111111111 1.8  C 6.579733333333333 1.8  5.418871111111112 2.9240280000000003  5.337768888888888 4.341357  L 5.3332444444444445 4.5  L 5.3332444444444445 7.2  C 5.3332444444444445 8.69121  6.527111111111111 9.9  7.999911111111111 9.9  C 9.42008888888889 9.9  10.580977777777779 8.77599  10.662044444444444 7.35867  L 10.666577777777778 7.2  L 10.666577777777778 4.5  Z " fill-rule="nonzero" fill="#ffffff" stroke="none" transform="matrix(1 0 0 1 24 177 )" />
  </g>
</svg>