<?xml version="1.0" encoding="utf-8"?>
<svg version="1.1" xmlns:xlink="http://www.w3.org/1999/xlink" width="16px" height="19px" xmlns="http://www.w3.org/2000/svg">
  <g transform="matrix(1 0 0 1 -24 -241 )">
    <path d="M 8.976 12.660045454545454  C 9.71595789473684 11.901168181818182  10.915621052631579 11.901168181818182  11.655578947368422 12.660045454545454  L 11.80378947368421 12.812909090909091  L 11.953263157894739 12.660045454545454  C 12.693221052631579 11.901168181818182  13.892884210526317 11.901168181818182  14.632842105263158 12.660045454545454  C 15.372799999999998 13.41892272727273  15.372799999999998 14.649259090909089  14.632842105263158 15.408136363636364  L 11.804463157894737 18.30883181818182  L 8.976 15.408136363636364  C 8.236042105263158 14.649259090909089  8.236042105263158 13.41892272727273  8.976 12.660045454545454  Z M 6.5269894736842105 11.230554545454545  L 6.7368421052631575 11.227272727272728  L 6.7368421052631575 12.954545454545453  C 3.94634947368421 12.954545454545453  1.6842105263157894 15.274531818181819  1.6842105263157894 18.136363636363637  L 0 18.136363636363637  C 0 14.392586363636362  2.903444210526316 11.344295454545456  6.5269894736842105 11.230554545454545  Z M 6.5473684210526315 0.0035754545454545735  L 6.7368421052631575 0  C 9.528421052631579 0  11.789473684210526 2.3188636363636363  11.789473684210526 5.181818181818182  C 11.789473684210526 7.979740909090909  9.630063157894737 10.257927272727272  6.9263157894736835 10.360095454545455  L 6.7368421052631575 10.363636363636363  C 3.9452631578947375 10.363636363636363  1.6842105263157894 8.044772727272727  1.6842105263157894 5.181818181818182  C 1.6842105263157894 2.38393  3.843654736842105 0.1056831818181819  6.5473684210526315 0.0035754545454545735  Z M 10.105263157894736 5.181818181818182  C 10.105263157894736 3.272810454545455  8.598231578947368 1.7272727272727273  6.7368421052631575 1.7272727272727273  C 4.875427368421052 1.7272727272727273  3.3684210526315788 3.272810454545455  3.3684210526315788 5.181818181818182  C 3.3684210526315788 7.090825909090909  4.875427368421052 8.636363636363637  6.7368421052631575 8.636363636363637  C 8.598231578947368 8.636363636363637  10.105263157894736 7.090825909090909  10.105263157894736 5.181818181818182  Z " fill-rule="nonzero" fill="#ffffff" stroke="none" transform="matrix(1 0 0 1 24 241 )" />
  </g>
</svg>