<?xml version="1.0" encoding="utf-8"?>
<svg version="1.1" xmlns:xlink="http://www.w3.org/1999/xlink" width="20px" height="19px" xmlns="http://www.w3.org/2000/svg">
  <g transform="matrix(1 0 0 1 -23 -305 )">
    <path d="M 6.478000000000001 5.5210860869565215  L 9.999666666666666 0.41304347826086957  L 13.521333333333335 5.5210860869565215  L 19.51025 7.262791304347827  L 15.697833333333334 12.161404347826087  L 15.8775 18.34590434782609  L 9.999666666666666 16.265404347826088  L 4.121808333333334 18.34590434782609  L 4.301491666666666 12.161404347826087  L 0.489095 7.262791304347827  L 6.478000000000001 5.5210860869565215  Z M 12.481083333333334 6.940377826086956  L 9.999666666666666 3.3406956521739124  L 7.518216666666667 6.940377826086956  L 3.297158333333333 8.167521739130436  L 5.9846 11.619326086956521  L 5.8571583333333335 15.976521739130435  L 9.999666666666666 14.51104347826087  L 14.141333333333332 15.976521739130435  L 14.014749999999998 11.619326086956521  L 16.70133333333333 8.167521739130436  L 12.481083333333334 6.940377826086956  Z M 6.6663250000000005 9.91304347826087  L 8.332991666666667 9.91304347826087  C 8.332991666666667 10.825539130434784  9.079166666666666 11.565217391304348  9.999666666666666 11.565217391304348  C 10.920166666666667 11.565217391304348  11.666333333333332 10.825539130434784  11.666333333333332 9.91304347826087  L 13.332999999999998 9.91304347826087  C 13.332999999999998 11.737952173913042  11.840583333333335 13.217391304347826  9.999666666666666 13.217391304347826  C 8.158708333333333 13.217391304347826  6.6663250000000005 11.737952173913042  6.6663250000000005 9.91304347826087  Z " fill-rule="nonzero" fill="#3dd4a7" stroke="none" transform="matrix(1 0 0 1 23 305 )" />
  </g>
</svg>