<?xml version="1.0" encoding="utf-8"?>
<svg version="1.1" xmlns:xlink="http://www.w3.org/1999/xlink" width="19px" height="15px" xmlns="http://www.w3.org/2000/svg">
  <g transform="matrix(1 0 0 1 -23 -371 )">
    <path d="M 0.8636363636363636 3.333333333333333  L 10.363636363636363 3.333333333333333  L 10.363636363636363 1.6666666666666665  L 3.4545454545454546 1.6666666666666665  L 3.4545454545454546 0  L 12.09090909090909 0  L 12.09090909090909 3.333333333333333  L 12.954545454545453 3.333333333333333  C 13.431531818181817 3.333333333333333  13.818181818181818 3.7064333333333335  13.818181818181818 4.166666666666667  L 13.818181818181818 5.999999999999999  L 18.320577272727274 2.958925  C 18.51593181818182 2.8269583333333337  18.785213636363636 2.872808333333334  18.921927272727274 3.0613333333333337  C 18.972709090909092 3.131366666666667  19 3.214783333333333  19 3.3002749999999996  L 19 13.366416666666666  C 19 13.596499999999999  18.806631818181817 13.783083333333334  18.56818181818182 13.783083333333334  C 18.47957272727273 13.783083333333334  18.39312272727273 13.756749999999998  18.320577272727274 13.70775  L 13.818181818181818 10.666666666666668  L 13.818181818181818 14.166666666666666  C 13.818181818181818 14.626916666666666  13.431531818181817 15  12.954545454545453 15  L 0.8636363636363636 15  C 0.38666727272727264 15  0 14.626916666666666  0 14.166666666666666  L 0 4.166666666666667  C 0 3.7064333333333335  0.38666727272727264 3.333333333333333  0.8636363636363636 3.333333333333333  Z M 12.09090909090909 13.333333333333332  L 12.09090909090909 5  L 1.7272727272727273 5  L 1.7272727272727273 13.333333333333332  L 12.09090909090909 13.333333333333332  Z M 13.818181818181818 8.034416666666665  L 13.818181818181818 8.63225  L 17.272727272727273 10.965583333333333  L 17.272727272727273 5.701091666666667  L 13.818181818181818 8.034416666666665  Z M 3.4545454545454546 8.333333333333334  L 3.4545454545454546 6.666666666666666  L 5.181818181818182 6.666666666666666  L 5.181818181818182 8.333333333333334  L 3.4545454545454546 8.333333333333334  Z " fill-rule="nonzero" fill="#ffffff" stroke="none" transform="matrix(1 0 0 1 23 371 )" />
  </g>
</svg>