<?xml version="1.0" encoding="utf-8"?>
<svg version="1.1" xmlns:xlink="http://www.w3.org/1999/xlink" width="19px" height="16px" xmlns="http://www.w3.org/2000/svg">
  <g transform="matrix(1 0 0 1 -23 -434 )">
    <path d="M 17.27695909090909 1.6840336842105263  L 17.27695909090909 4.210349473684211  L 18.140595454545455 4.210349473684211  L 18.140595454545455 12.63141052631579  L 17.27695909090909 12.63141052631579  L 17.27695909090909 15.157726315789475  C 17.27695909090909 15.62282105263158  16.890309090909092 15.999831578947369  16.413322727272725 16  L 0.867850909090909 16  C 0.39088181818181805 15.999831578947369  0.004214545454545451 15.62282105263158  0 15.157726315789475  L 0 1.6840336842105263  C 0.004214545454545451 1.2189473684210526  0.39088181818181805 0.8419284210526315  0.867850909090909 1  L 16.413322727272725 1  C 16.890309090909092 0.8419284210526315  17.27695909090909 1.2189473684210526  17.27695909090909 1.6840336842105263  Z M 15.549686363636363 14  L 15.549686363636363 12.63141052631579  L 10.367868181818181 12.63141052631579  C 7.9830227272727265 12.63141052631579  6.0496690909090916 10.746273684210527  6.0496690909090916 8.420884210526316  C 6.0496690909090916 6.095461052631579  7.9830227272727265 4.210349473684211  10.367868181818181 4.210349473684211  L 15.549686363636363 4.210349473684211  L 15.549686363636363 2.526138947368421  L 2 2.526138947368421  L 2 14  L 15.549686363636363 14  Z M 10.367868181818181 10.9472  L 16.413322727272725 10.9472  L 16.413322727272725 5.894560000000001  L 10.367868181818181 5.894560000000001  C 8.936909090909092 5.894560000000001  7.77695909090909 7.0256  7.77695909090909 8.420884210526316  C 7.77695909090909 9.816084210526315  8.936909090909092 10.9472  10.367868181818181 10.9472  Z M 10.367868181818181 9.262989473684211  L 10.367868181818181 7.578778947368422  L 12.958777272727273 7.578778947368422  L 12.958777272727273 9.262989473684211  L 10.367868181818181 9.262989473684211  Z " fill-rule="nonzero" fill="#fbfafa" stroke="none" fill-opacity="0.9882352941176471" transform="matrix(1 0 0 1 23 434 )" />
  </g>
</svg>