<?xml version="1.0" encoding="utf-8"?>
<svg version="1.1" xmlns:xlink="http://www.w3.org/1999/xlink" width="16px" height="17px" xmlns="http://www.w3.org/2000/svg">
  <g transform="matrix(1 0 0 1 -24 -498 )">
    <path d="M 5.052631578947368 6.800000000000001  L 5.052631578947368 13.600000000000001  L 0.8421052631578947 13.600000000000001  L 0.8421052631578947 6.800000000000001  L 5.052631578947368 6.800000000000001  Z M 2.526315789473684 11.899999999999999  L 3.3684210526315788 11.899999999999999  L 3.3684210526315788 8.5  L 2.526315789473684 8.5  L 2.526315789473684 11.899999999999999  Z M 7.578947368421052 11.899999999999999  L 8.421052631578947 11.899999999999999  L 8.421052631578947 5.1  L 7.578947368421052 5.1  L 7.578947368421052 11.899999999999999  Z M 10 3.4000000000000004  L 10 13.600000000000001  L 6 13.600000000000001  L 6 3.4000000000000004  L 10 3.4000000000000004  Z M 12.631578947368421 11.899999999999999  L 13.473684210526315 11.899999999999999  L 13.473684210526315 1.7000000000000002  L 12.631578947368421 1.7000000000000002  L 12.631578947368421 11.899999999999999  Z M 15 0  L 15 13.600000000000001  L 11 13.600000000000001  L 11 0  L 15 0  Z M 16 15  L 16 17  L 0 17  L 0 15  L 16 15  Z " fill-rule="nonzero" fill="#3dd4a7" stroke="none" transform="matrix(1 0 0 1 24 498 )" />
  </g>
</svg>