<?xml version="1.0" encoding="utf-8"?>
<svg version="1.1" xmlns:xlink="http://www.w3.org/1999/xlink" width="890px" height="1079px" xmlns="http://www.w3.org/2000/svg">
  <g transform="matrix(1 0 0 1 -279 -120 )">
    <path d="M 280 136  A 15 15 0 0 1 295 121 L 1153 121  A 15 15 0 0 1 1168 136 L 1168 1183  A 15 15 0 0 1 1153 1198 L 295 1198  A 15 15 0 0 1 280 1183 L 280 136  Z " fill-rule="nonzero" fill="#ffffff" stroke="none" />
    <path d="M 279.5 136  A 15.5 15.5 0 0 1 295 120.5 L 1153 120.5  A 15.5 15.5 0 0 1 1168.5 136 L 1168.5 1183  A 15.5 15.5 0 0 1 1153 1198.5 L 295 1198.5  A 15.5 15.5 0 0 1 279.5 1183 L 279.5 136  Z " stroke-width="1" stroke="#f2f2f2" fill="none" stroke-opacity="0.9882352941176471" />
  </g>
</svg>