<?xml version="1.0" encoding="utf-8"?>
<svg version="1.1" xmlns:xlink="http://www.w3.org/1999/xlink" width="64px" height="40px" xmlns="http://www.w3.org/2000/svg">
  <g transform="matrix(1 0 0 1 -375 -1194 )">
    <path d="M 375.5 1198  A 3.5 3.5 0 0 1 379 1194.5 L 435 1194.5  A 3.5 3.5 0 0 1 438.5 1198 L 438.5 1230  A 3.5 3.5 0 0 1 435 1233.5 L 379 1233.5  A 3.5 3.5 0 0 1 375.5 1230 L 375.5 1198  Z " fill-rule="nonzero" fill="#ffffff" stroke="none" fill-opacity="0.09803921568627451" />
    <path d="M 375.5 1198  A 3.5 3.5 0 0 1 379 1194.5 L 435 1194.5  A 3.5 3.5 0 0 1 438.5 1198 L 438.5 1230  A 3.5 3.5 0 0 1 435 1233.5 L 379 1233.5  A 3.5 3.5 0 0 1 375.5 1230 L 375.5 1198  Z " stroke-width="1" stroke="#3dd4a7" fill="none" />
  </g>
</svg>