<?xml version="1.0" encoding="utf-8"?>
<svg version="1.1" xmlns:xlink="http://www.w3.org/1999/xlink" width="76px" height="52px" xmlns="http://www.w3.org/2000/svg">
  <defs>
    <filter x="369px" y="1188px" width="76px" height="52px" filterUnits="userSpaceOnUse" id="filter840">
      <feOffset dx="0" dy="0" in="SourceAlpha" result="shadowOffsetInner" />
      <feGaussianBlur stdDeviation="3" in="shadowOffsetInner" result="shadowGaussian" />
      <feComposite in2="shadowGaussian" operator="atop" in="SourceAlpha" result="shadowComposite" />
      <feColorMatrix type="matrix" values="0 0 0 0 0.2392156862745098  0 0 0 0 0.8313725490196078  0 0 0 0 0.6549019607843137  0 0 0 0.4980392156862745 0  " in="shadowComposite" />
    </filter>
    <g id="widget841">
      <path d="M 375.5 1198  A 3.5 3.5 0 0 1 379 1194.5 L 435 1194.5  A 3.5 3.5 0 0 1 438.5 1198 L 438.5 1230  A 3.5 3.5 0 0 1 435 1233.5 L 379 1233.5  A 3.5 3.5 0 0 1 375.5 1230 L 375.5 1198  Z " fill-rule="nonzero" fill="#ffffff" stroke="none" fill-opacity="0.09803921568627451" />
      <path d="M 375.5 1198  A 3.5 3.5 0 0 1 379 1194.5 L 435 1194.5  A 3.5 3.5 0 0 1 438.5 1198 L 438.5 1230  A 3.5 3.5 0 0 1 435 1233.5 L 379 1233.5  A 3.5 3.5 0 0 1 375.5 1230 L 375.5 1198  Z " stroke-width="1" stroke="#3dd4a7" fill="none" />
    </g>
  </defs>
  <g transform="matrix(1 0 0 1 -369 -1188 )">
    <use xlink:href="#widget841" filter="url(#filter840)" />
    <use xlink:href="#widget841" />
  </g>
</svg>