<?xml version="1.0" encoding="utf-8"?>
<svg version="1.1" xmlns:xlink="http://www.w3.org/1999/xlink" width="1150px" height="80px" xmlns="http://www.w3.org/2000/svg">
  <g>
    <path d="M 1 16.000000000000004  A 15 15 0 0 1 15.999999999999996 1 L 1134 1  A 15 15 0 0 1 1149 16 L 1149 64  A 15 15 0 0 1 1134 79 L 16 79  A 15 15 0 0 1 1 64 L 1 16  Z " fill-rule="nonzero" fill="#ffffff" stroke="none" />
    <path d="M 0.5 16.000000000000004  A 15.5 15.5 0 0 1 15.999999999999996 0.5 L 1134 0.5  A 15.5 15.5 0 0 1 1149.5 16 L 1149.5 64  A 15.5 15.5 0 0 1 1134 79.5 L 16 79.5  A 15.5 15.5 0 0 1 0.5 64 L 0.5 16  Z " stroke-width="1" stroke="#f2f2f2" fill="none" stroke-opacity="0.9882352941176471" />
  </g>
</svg>