<?xml version="1.0" encoding="utf-8"?>
<svg version="1.1" xmlns:xlink="http://www.w3.org/1999/xlink" width="240px" height="800px" xmlns="http://www.w3.org/2000/svg">
  <g transform="matrix(1 0 0 1 0 -100 )">
    <path d="M 1 116  A 15 15 0 0 1 15.999999999999996 101 L 224 101  A 15 15 0 0 1 239 116 L 239 884  A 15 15 0 0 1 224 899 L 16 899  A 15 15 0 0 1 1 884 L 1 116  Z " fill-rule="nonzero" fill="#ffffff" stroke="none" />
    <path d="M 0.5 116  A 15.5 15.5 0 0 1 15.999999999999996 100.5 L 224 100.5  A 15.5 15.5 0 0 1 239.5 116 L 239.5 884  A 15.5 15.5 0 0 1 224 899.5 L 16 899.5  A 15.5 15.5 0 0 1 0.5 884 L 0.5 116  Z " stroke-width="1" stroke="#f2f2f2" fill="none" stroke-opacity="0.9882352941176471" />
  </g>
</svg>