<?xml version="1.0" encoding="utf-8"?>
<svg version="1.1" xmlns:xlink="http://www.w3.org/1999/xlink" width="12px" height="12px" xmlns="http://www.w3.org/2000/svg">
  <g transform="matrix(1 0 0 1 -161 -129 )">
    <path d="M 4.7368421052631575 2.526315789473684  C 5.817157894736842 2.526315789473684  6.813031578947369 2.8879831578947366  7.609957894736841 3.4968378947368417  L 9.843663157894735 1.263157894736842  L 6.947368421052632 1.263157894736842  L 6.947368421052632 0  L 12 0  L 12 5.052631578947368  L 10.736842105263158 5.052631578947368  L 10.736842105263158 2.1563431578947365  L 8.503136842105263 4.39002947368421  C 9.112042105263157 5.186968421052631  9.473684210526315 6.182842105263159  9.473684210526315 7.2631578947368425  C 9.473684210526315 9.879221052631578  7.352905263157894 12  4.7368421052631575 12  C 2.120753684210526 12  0 9.879221052631578  0 7.2631578947368425  C 0 4.647094736842106  2.120753684210526 2.526315789473684  4.7368421052631575 2.526315789473684  Z M 1.263157894736842 7.2631578947368425  C 1.263157894736842 9.181642105263158  2.8183768421052635 10.736842105263158  4.7368421052631575 10.736842105263158  C 6.655326315789473 10.736842105263158  8.210526315789474 9.181642105263158  8.210526315789474 7.2631578947368425  C 8.210526315789474 5.344673684210527  6.655326315789473 3.789473684210526  4.7368421052631575 3.789473684210526  C 2.8183768421052635 3.789473684210526  1.263157894736842 5.344673684210527  1.263157894736842 7.2631578947368425  Z " fill-rule="nonzero" fill="#3dd4a7" stroke="none" transform="matrix(1 0 0 1 161 129 )" />
  </g>
</svg>