<?xml version="1.0" encoding="utf-8"?>
<svg version="1.1" xmlns:xlink="http://www.w3.org/1999/xlink" width="1150px" height="461px" xmlns="http://www.w3.org/2000/svg">
  <g transform="matrix(1 0 0 1 -20 -544 )">
    <path d="M 21 560  A 15 15 0 0 1 36 545 L 1154 545  A 15 15 0 0 1 1169 560 L 1169 989  A 15 15 0 0 1 1154 1004 L 36 1004  A 15 15 0 0 1 21 989 L 21 560  Z " fill-rule="nonzero" fill="#ffffff" stroke="none" />
    <path d="M 20.5 560  A 15.5 15.5 0 0 1 36 544.5 L 1154 544.5  A 15.5 15.5 0 0 1 1169.5 560 L 1169.5 989  A 15.5 15.5 0 0 1 1154 1004.5 L 36 1004.5  A 15.5 15.5 0 0 1 20.5 989 L 20.5 560  Z " stroke-width="1" stroke="#f2f2f2" fill="none" stroke-opacity="0.9882352941176471" />
  </g>
</svg>