<?xml version="1.0" encoding="utf-8"?>
<svg version="1.1" xmlns:xlink="http://www.w3.org/1999/xlink" width="66px" height="36px" xmlns="http://www.w3.org/2000/svg">
  <defs>
    <filter x="500px" y="113px" width="66px" height="36px" filterUnits="userSpaceOnUse" id="filter801">
      <feOffset dx="0" dy="0" in="SourceAlpha" result="shadowOffsetInner" />
      <feGaussianBlur stdDeviation="2.5" in="shadowOffsetInner" result="shadowGaussian" />
      <feComposite in2="shadowGaussian" operator="atop" in="SourceAlpha" result="shadowComposite" />
      <feColorMatrix type="matrix" values="0 0 0 0 0.8941176470588235  0 0 0 0 0.8941176470588235  0 0 0 0 0.8941176470588235  0 0 0 1 0  " in="shadowComposite" />
    </filter>
    <g id="widget802">
      <path d="M 506 122  A 3 3 0 0 1 509 119 L 557 119  A 3 3 0 0 1 560 122 L 560 140  A 3 3 0 0 1 557 143 L 509 143  A 3 3 0 0 1 506 140 L 506 122  Z " fill-rule="nonzero" fill="#ffffff" stroke="none" />
      <path d="M 505.5 122  A 3.5 3.5 0 0 1 509 118.5 L 557 118.5  A 3.5 3.5 0 0 1 560.5 122 L 560.5 140  A 3.5 3.5 0 0 1 557 143.5 L 509 143.5  A 3.5 3.5 0 0 1 505.5 140 L 505.5 122  Z " stroke-width="1" stroke="#f2f2f2" fill="none" stroke-opacity="0.9882352941176471" />
    </g>
  </defs>
  <g transform="matrix(1 0 0 1 -500 -113 )">
    <use xlink:href="#widget802" filter="url(#filter801)" />
    <use xlink:href="#widget802" />
  </g>
</svg>