<?xml version="1.0" encoding="utf-8"?>
<svg version="1.1" xmlns:xlink="http://www.w3.org/1999/xlink" width="10px" height="10px" xmlns="http://www.w3.org/2000/svg">
  <g transform="matrix(1 0 0 1 -13 -41 )">
    <path d="M 18 43  C 19.68 43  21 44.32  21 46  C 21 47.68  19.68 49  18 49  C 16.32 49  15 47.68  15 46  C 15 44.32  16.32 43  18 43  Z " fill-rule="nonzero" fill="#ffffff" stroke="none" />
    <path d="M 18 42.5  C 19.96 42.5  21.5 44.04  21.5 46  C 21.5 47.96  19.96 49.5  18 49.5  C 16.04 49.5  14.5 47.96  14.5 46  C 14.5 44.04  16.04 42.5  18 42.5  Z " stroke-width="3" stroke="#3dd4a7" fill="none" />
  </g>
</svg>