<?xml version="1.0" encoding="utf-8"?>
<svg version="1.1" xmlns:xlink="http://www.w3.org/1999/xlink" width="397px" height="298px" xmlns="http://www.w3.org/2000/svg">
  <g transform="matrix(1 0 0 1 -20 -226 )">
    <path d="M 21 242  A 15 15 0 0 1 36 227 L 401 227  A 15 15 0 0 1 416 242 L 416 508  A 15 15 0 0 1 401 523 L 36 523  A 15 15 0 0 1 21 508 L 21 242  Z " fill-rule="nonzero" fill="#ffffff" stroke="none" />
    <path d="M 20.5 242  A 15.5 15.5 0 0 1 36 226.5 L 401 226.5  A 15.5 15.5 0 0 1 416.5 242 L 416.5 508  A 15.5 15.5 0 0 1 401 523.5 L 36 523.5  A 15.5 15.5 0 0 1 20.5 508 L 20.5 242  Z " stroke-width="1" stroke="#f2f2f2" fill="none" stroke-opacity="0.9882352941176471" />
  </g>
</svg>