<?xml version="1.0" encoding="utf-8"?>
<svg version="1.1" xmlns:xlink="http://www.w3.org/1999/xlink" width="14px" height="16px" xmlns="http://www.w3.org/2000/svg">
  <g transform="matrix(1 0 0 1 -383 -251 )">
    <path d="M 0.35000000000002274 3.8500000000000227  L 7 0  L 13.649999999999977 3.8500000000000227  L 13.649999999999977 11.549999999999955  L 7 15.399999999999977  L 0.35000000000002274 11.549999999999955  L 0.35000000000002274 3.8500000000000227  Z M 12.25 4.657100000000014  L 7 1.6177000000000135  L 1.75 4.657100000000014  L 1.75 10.742899999999963  L 7 13.782299999999964  L 12.25 10.742899999999963  L 12.25 4.657100000000014  Z M 7 10.5  C 5.453602700473766 10.5  4.199999999999989 9.246397299526222  4.199999999999989 7.699999999999989  C 4.199999999999989 6.153602700473755  5.453602700473766 4.899999999999977  7 4.899999999999977  C 8.546397299526234 4.899999999999977  9.800000000000011 6.153602700473755  9.800000000000011 7.699999999999989  C 9.800000000000011 9.246397299526222  8.546397299526234 10.5  7 10.5  Z M 7 9.099999999999966  C 7.773198649763117 9.099999999999966  8.399999999999977 8.473198649763106  8.399999999999977 7.699999999999989  C 8.399999999999977 6.926801350236872  7.773198649763117 6.300000000000011  7 6.300000000000011  C 6.226801350236883 6.300000000000011  5.600000000000023 6.926801350236872  5.600000000000023 7.699999999999989  C 5.600000000000023 8.473198649763106  6.226801350236883 9.099999999999966  7 9.099999999999966  Z " fill-rule="nonzero" fill="#cccccc" stroke="none" fill-opacity="0.9882352941176471" transform="matrix(1 0 0 1 383 251 )" />
  </g>
</svg>