<?xml version="1.0" encoding="utf-8"?>
<svg version="1.1" xmlns:xlink="http://www.w3.org/1999/xlink" width="19px" height="18px" xmlns="http://www.w3.org/2000/svg">
  <g transform="matrix(1 0 0 1 -58 -316 )">
    <path d="M 14.46428571428581 6.8067226890755705  L 14.46428571428581 5.105042016806692  L 18.71848739495806 5.105042016806692  L 18.71848739495806 6.8067226890755705  L 14.46428571428581 6.8067226890755705  Z M 12.762605042016844 11.060924369747966  L 12.762605042016844 9.359243697478917  L 18.71848739495806 9.359243697478917  L 18.71848739495806 11.060924369747966  L 12.762605042016844 11.060924369747966  Z M 15.31512605042019 15.31512605042019  L 15.31512605042019 13.613445378151312  L 18.71848739495806 13.613445378151312  L 18.71848739495806 15.31512605042019  L 15.31512605042019 15.31512605042019  Z M 1.7016806722689353 17.867647058823536  L 0 17.867647058823536  C 0 14.108397921319806  3.0474735515719256 11.060924369747966  6.806722689075627 11.060924369747966  C 10.565971826579386 11.060924369747966  13.613445378151255 14.108397921319806  13.613445378151255 17.867647058823536  L 11.911764705882433 17.867647058823536  C 11.911764705882433 15.048210205695796  9.626159542203482 12.762605042016844  6.806722689075627 12.762605042016844  C 3.98728583594783 12.762605042016844  1.7016806722689353 15.048210205695796  1.7016806722689353 17.867647058823536  Z M 11.911764705882433 5.105042016806692  C 11.911764705882433 7.925577731092403  9.627258403361393 10.210084033613498  6.806722689075627 10.210084033613498  C 3.986186974789973 10.210084033613498  1.7016806722689353 7.925577731092403  1.7016806722689353 5.105042016806692  C 1.7016806722689353 2.2845063025210948  3.986186974789973 0  6.806722689075627 0  C 9.627258403361393 0  11.911764705882433 2.2845063025210948  11.911764705882433 5.105042016806692  Z M 3.403361344537842 5.105042016806692  C 3.403361344537842 6.985399159663871  4.926365546218534 8.508403361344563  6.806722689075627 8.508403361344563  C 8.687079831932806 8.508403361344563  10.21008403361347 6.985399159663871  10.21008403361347 5.105042016806692  C 10.21008403361347 3.2246848739495135  8.687079831932806 1.7016806722688784  6.806722689075627 1.7016806722688784  C 4.926365546218534 1.7016806722688784  3.403361344537842 3.2246848739495135  3.403361344537842 5.105042016806692  Z " fill-rule="nonzero" fill="#3dd4a7" stroke="none" transform="matrix(1 0 0 1 58 316 )" />
  </g>
</svg>