<?xml version="1.0" encoding="utf-8"?>
<svg version="1.1" xmlns:xlink="http://www.w3.org/1999/xlink" width="17px" height="19px" xmlns="http://www.w3.org/2000/svg">
  <g transform="matrix(1 0 0 1 -159 -316 )">
    <path d="M 0.9129047619047626 3.619047619047592  L 3.6190476190476204 3.619047619047592  L 3.6190476190476204 0.9047619047619264  C 3.6190476190476204 0.4050757025340772  4.024123321581655 0  4.523809523809518 0  L 15.38095238095238 0  C 15.880638583180229 0  16.285714285714278 0.4050757025340772  16 0.9047619047619264  L 16 13.571428571428555  C 16.285714285714278 14.071114773656404  15.880638583180229 14.476190476190482  15.38095238095238 14.476190476190482  L 12.666666666666657 14.476190476190482  L 12.666666666666657 17.190476190476147  C 12.666666666666657 17.689904761904813  12.259523809523799 18.095238095238074  11.755571428571429 18  L 0.9110952380952355 18  C 0.9092855893342318 18.09524894334936  0.9074759121230329 18.0952543674415  0.9056662308473022 18.0952543674415  C 0.40582728404557855 18.0952543674415  0.0004903589509268613 17.690314896748532  0 17.190476190476147  L 0.0027142857142834487 4.523809523809518  C 0.0027142857142834487 4.024380952380966  0.4098571428571418 3.619047619047592  0.9129047619047626 3.619047619047592  Z M 10.857142857142847 5.428571428571445  L 2 5.428571428571445  L 2 16.285714285714334  L 10.857142857142847 16.285714285714334  L 10.857142857142847 5.428571428571445  Z M 5.428571428571431 1.8095238095238528  L 5.428571428571431 3.619047619047592  L 12.666666666666657 3.619047619047592  L 12.666666666666657 12.666666666666629  L 14.476190476190467 12.666666666666629  L 14.476190476190467 1.8095238095238528  L 5.428571428571431 1.8095238095238528  Z M 3.6190476190476204 9.952380952380963  L 3.6190476190476204 8.14285714285711  L 9.047619047619037 8.14285714285711  L 9.047619047619037 9.952380952380963  L 3.6190476190476204 9.952380952380963  Z M 3.6190476190476204 13.571428571428555  L 3.6190476190476204 11.761904761904814  L 9.047619047619037 11.761904761904814  L 9.047619047619037 13.571428571428555  L 3.6190476190476204 13.571428571428555  Z " fill-rule="nonzero" fill="#fddb78" stroke="none" transform="matrix(1 0 0 1 159 316 )" />
  </g>
</svg>