<?xml version="1.0" encoding="utf-8"?>
<svg version="1.1" xmlns:xlink="http://www.w3.org/1999/xlink" width="19px" height="18px" xmlns="http://www.w3.org/2000/svg">
  <g transform="matrix(1 0 0 1 -261 -316 )">
    <path d="M 12.571714285714279 12  L 15.428571428571445 9.85714285714289  L 15.428571428571445 17.571428571428555  L 12.571714285714279 15.428571428571445  L 10.285714285714334 15.428571428571445  L 10.285714285714334 12  L 12.571714285714279 12  Z M 0.8571428571428896 0  L 16.285714285714334 0  C 16.759101214140742 0  17.142857142857224 0.38375592871648223  17.142857142857224 0.8571428571428896  L 17.142857142857224 8.571428571428555  L 15.428571428571445 8.571428571428555  L 15.428571428571445 3.631714285714338  L 8.633142857142843 9.718285714285685  L 2 3.6128571428571377  L 2 13.714285714285666  L 8.571428571428555 13.714285714285666  L 8.571428571428555 15.428571428571445  L 0.8571428571428896 15.428571428571445  C 0.38375592871648223 15.428571428571445  0 15.044815499854963  0 14.571428571428555  L 0 0.8571428571428896  C 0 0.38375592871648223  0.38375592871648223 0  0.8571428571428896 0  Z M 16.285714285714334 15.428571428571445  L 16.285714285714334 12  C 16.288271418564364 11.999988556689118  16.29082857381718 11.999982835012133  16.29338573227176 11.999982835012133  C 17.24015958912446 11.999982835012133  18.007671446557424 12.767494692445098  18.007671446557424 13.714268549297913  C 18.007671446557424 14.614126843702593  17.311903373154223 15.36082321751394  16.41428571428571 15.424285714285702  L 16.285714285714334 15.428571428571445  Z M 8.6237142857143 7.424571428571426  L 15 2  L 2.1522857142856537 2  L 8.6237142857143 7.424571428571426  Z " fill-rule="nonzero" fill="#fa746b" stroke="none" transform="matrix(1 0 0 1 261 316 )" />
  </g>
</svg>