<?xml version="1.0" encoding="utf-8"?>
<svg version="1.1" xmlns:xlink="http://www.w3.org/1999/xlink" width="22px" height="16px" xmlns="http://www.w3.org/2000/svg">
  <g transform="matrix(1 0 0 1 -360 -317 )">
    <path d="M 0 5.940412528647812  C 0 2.6593246753245694  4.876088617265054 0  10.890756302520998 0  C 16.905423987777 0  21.781512605042053 2.6593246753245694  21.781512605042053 5.940412528647812  L 21.781512605042053 9.900687547746315  C 21.781512605042053 13.181775401069444  16.905423987777 15.841100076394241  10.890756302520998 15.841100076394241  C 4.983016042780832 15.841100076394241  0.17425210084039122 13.275831932773144  0.004950343773884924 10.075929717341523  L 0 9.900687547746315  L 0 5.940412528647812  Z M 19.802365164247448 9.356149732620338  C 17.83212834224608 10.882835752482833  14.574802139037502 11.880825057295624  10.890756302520998 11.880825057295624  C 7.207700534759425 11.880825057295624  3.9503743315508473 10.883825821237451  1.9801375095492517 9.356149732620338  L 1.9801375095492517 9.900687547746315  C 1.9801375095492517 11.763996944232417  5.824574484339195 13.860962566844933  10.890756302520998 13.860962566844933  C 15.851000763941926 13.860962566844933  19.64098395721922 11.851122994652314  19.796424751718888 10.01751566080975  L 19.801375095492773 9.900687547746315  L 19.802365164247448 9.356149732620338  Z M 19.801375095492773 5.940412528647812  C 19.801375095492773 4.0771031321619375  15.95693812070283 1.9801375095493086  10.890756302520998 1.9801375095493086  C 5.824574484339195 1.9801375095493086  1.9801375095492517 4.0771031321619375  1.9801375095492517 5.940412528647812  C 1.9801375095492517 7.8037219251336865  5.824574484339195 9.900687547746315  10.890756302520998 9.900687547746315  C 15.95693812070283 9.900687547746315  19.801375095492773 7.8037219251336865  19.801375095492773 5.940412528647812  Z " fill-rule="nonzero" fill="#6c76f4" stroke="none" transform="matrix(1 0 0 1 360 317 )" />
  </g>
</svg>