<?xml version="1.0" encoding="utf-8"?>
<svg version="1.1" xmlns:xlink="http://www.w3.org/1999/xlink" width="16px" height="18px" xmlns="http://www.w3.org/2000/svg">
  <g transform="matrix(1 0 0 1 -59 -416 )">
    <path d="M 10.663822222222223 0  L 16 5.3999999999999995  L 16 17.093880000000002  C 16 17.595090000000003  15.604622222222222 18  15.116977777777777 18  L 0.883022222222222 18  C 0.3955111111111111 18  0 17.6004  0 17.10738  L 0 0.8926200000000001  C 0 0.4097789999999999  0.39884444444444456 0  0.8908533333333332 0  L 10.663822222222223 0  Z M 14.222222222222221 16  L 14.222222222222221 6.3  L 9.777777777777779 6.3  L 9.777777777777779 1.8  L 2 1.8  L 2 16  L 14.222222222222221 16  Z M 4.444444444444445 6.3  L 4.444444444444445 4.5  L 7.111111111111111 4.5  L 7.111111111111111 6.3  L 4.444444444444445 6.3  Z M 4.444444444444445 9.9  L 4.444444444444445 8.1  L 11.555555555555555 8.1  L 11.555555555555555 9.9  L 4.444444444444445 9.9  Z M 4.444444444444445 13.5  L 4.444444444444445 11.700000000000001  L 11.555555555555555 11.700000000000001  L 11.555555555555555 13.5  L 4.444444444444445 13.5  Z " fill-rule="nonzero" fill="#2984f8" stroke="none" transform="matrix(1 0 0 1 59 416 )" />
  </g>
</svg>