<?xml version="1.0" encoding="utf-8"?>
<svg version="1.1" xmlns:xlink="http://www.w3.org/1999/xlink" width="20px" height="20px" xmlns="http://www.w3.org/2000/svg">
  <g transform="matrix(1 0 0 1 -158 -415 )">
    <path d="M 15.57181818181823 12.167272727272689  L 16.70454545454548 12.82090909090914  C 17.080461074175957 11.927724064804693  17.27410567366165 10.96842589216692  17.27410567366165 9.999358276394332  C 17.27410567366165 5.982239836943222  14.01758774947632 2.72572191275799  10.00046931002531 2.72572191275799  C 8.734338112065402 2.72572191275799  7.490136646879876 3.056224684045276  6.390909090909091 3.6845454545454572  L 5.489090909090919 2.1054545454545632  C 8.296718053136374 0.5007888496709256  11.745591723520064 0.5090977201877536  14.545454545454518 2.1272727272726684  C 18.627272727272782 4.4836363636363785  20.190909090909045 9.529090909090883  18.288181818181783 13.736363636363649  L 19.508181818181868 14.440000000000055  L 15.721818181818193 16.452727272727373  L 15.57181818181823 12.167272727272689  Z M 3.294545454545471 7.180000000000064  L 3.2954545454545183 7.17909090909086  C 2.9195389258240425 8.072275935195307  2.7258943263383486 9.03157410783308  2.7258943263383486 10.000641723605668  C 2.7258943263383486 14.017760163056778  5.98241225052368 17.27427808724201  9.99953068997469 17.27427808724201  C 11.265661887934598 17.27427808724201  12.509863353120068 16.943775315954724  13.60909090909091 16.315454545454543  L 14.510909090909081 17.894545454545437  C 11.703281946863626 19.49921115032913  8.254408276479936 19.490902279812246  5.454545454545482 17.87272727272733  C 1.372727272727218 15.516363636363621  -0.19090909090904518 10.470909090909117  1.7118181818182165 6.263636363636351  L 0.49090909090908497 5.560909090909149  L 4.277272727272759 3.548181818181831  L 4.427272727272737 7.833636363636288  L 3.294545454545471 7.180000000000064  Z M 11.286363636363603 12.570909090909026  L 8.712727272727307 10  L 6.141818181818181 12.570909090909026  L 4.856363636363653 11.285454545454627  L 8.713636363636397 7.429090909090974  L 11.285454545454613 10  L 13.857272727272743 7.429090909090974  L 15.142727272727257 8.714545454545373  L 11.285454545454613 12.570909090909026  Z " fill-rule="nonzero" fill="#ffffff" stroke="none" transform="matrix(1 0 0 1 158 415 )" />
  </g>
</svg>