<?xml version="1.0" encoding="utf-8"?>
<svg version="1.1" xmlns:xlink="http://www.w3.org/1999/xlink" width="21px" height="20px" xmlns="http://www.w3.org/2000/svg">
  <g transform="matrix(1 0 0 1 -260 -415 )">
    <path d="M 6.801900000000001 5.811669565217391  L 10.499649999999999 0.43478260869565216  L 14.1974 5.811669565217391  L 20.485762499999996 7.64504347826087  L 16.482725 12.801478260869565  L 16.671375 19.311478260869567  L 10.499649999999999 17.121478260869566  L 4.32789875 19.311478260869567  L 4.5165662499999994 12.801478260869565  L 0.51354975 7.64504347826087  L 6.801900000000001 5.811669565217391  Z M 13.1051375 7.305660869565217  L 10.499649999999999 3.516521739130434  L 7.894127500000001 7.305660869565217  L 3.46201625 8.597391304347827  L 6.28383 12.23086956521739  L 6.15001625 16.817391304347826  L 10.499649999999999 15.274782608695652  L 14.8484 16.817391304347826  L 14.715487499999998 12.23086956521739  L 17.5364 8.597391304347827  L 13.1051375 7.305660869565217  Z M 6.999641250000001 10.434782608695652  L 8.74964125 10.434782608695652  C 8.74964125 11.395304347826087  9.533125 12.173913043478262  10.499649999999999 12.173913043478262  C 11.466175 12.173913043478262  12.249649999999999 11.395304347826087  12.249649999999999 10.434782608695652  L 13.999649999999999 10.434782608695652  C 13.999649999999999 12.355739130434781  12.432612500000001 13.91304347826087  10.499649999999999 13.91304347826087  C 8.56664375 13.91304347826087  6.999641250000001 12.355739130434781  6.999641250000001 10.434782608695652  Z " fill-rule="nonzero" fill="#3dd4a7" stroke="none" transform="matrix(1 0 0 1 260 415 )" />
  </g>
</svg>