<?xml version="1.0" encoding="utf-8"?>
<svg version="1.1" xmlns:xlink="http://www.w3.org/1999/xlink" width="18px" height="18px" xmlns="http://www.w3.org/2000/svg">
  <g transform="matrix(1 0 0 1 -362 -416 )">
    <path d="M 13.018285714285724 6.146571428571406  L 2.5414285714285825 2.6537142857142726  L 5.580857142857155 13.290857142857135  L 8.186571428571426 8.079428571428593  L 13.018285714285724 6.146571428571406  Z M 0.7705714285714294 0.2571428571428669  L 16.889999999999986 5.629714285714272  C 17.06535539055423 5.687836805678273  17.183732937685477 5.851784478697709  17.183732937685477 6.036521427691127  C 17.183732937685477 6.211895438934391  17.076884459102786 6.369573760902938  16.913999999999987 6.434571428571417  L 9.428571428571416 9.428571428571445  L 5.635714285714272 17.014285714285734  C 5.5631382683573065 17.159535719304074  5.414709185022218 17.251297614752616  5.25233664346041 17.251297614752616  C 5.061029409451862 17.251297614752616  4.892889891465444 17.124504183477256  4.840285714285727 16.940571428571445  L 0.2228571428571513 0.780857142857144  C 0.2119755838409958 0.7426632791322731  0.20645558295538535 0.7031422941075789  0.20645558295538535 0.6634285741501458  C 0.20645558295538535 0.4267351099369421  0.39833354731362647 0.23485714557870097  0.6350270115268302 0.23485714557870097  C 0.6814004655743702 0.23485714557870097  0.7274665366969941 0.24238356371256486  0.7714285714285722 0.2571428571428669  Z " fill-rule="nonzero" fill="#fa746b" stroke="none" transform="matrix(1 0 0 1 362 416 )" />
  </g>
</svg>