<?xml version="1.0" encoding="utf-8"?>
<svg version="1.1" xmlns:xlink="http://www.w3.org/1999/xlink" width="363px" height="298px" xmlns="http://www.w3.org/2000/svg">
  <g transform="matrix(1 0 0 1 -807 -226 )">
    <path d="M 808 242  A 15 15 0 0 1 823 227 L 1154 227  A 15 15 0 0 1 1169 242 L 1169 508  A 15 15 0 0 1 1154 523 L 823 523  A 15 15 0 0 1 808 508 L 808 242  Z " fill-rule="nonzero" fill="#ffffff" stroke="none" />
    <path d="M 807.5 242  A 15.5 15.5 0 0 1 823 226.5 L 1154 226.5  A 15.5 15.5 0 0 1 1169.5 242 L 1169.5 508  A 15.5 15.5 0 0 1 1154 523.5 L 823 523.5  A 15.5 15.5 0 0 1 807.5 508 L 807.5 242  Z " stroke-width="1" stroke="#f2f2f2" fill="none" stroke-opacity="0.9882352941176471" />
  </g>
</svg>