<?xml version="1.0" encoding="utf-8"?>
<svg version="1.1" xmlns:xlink="http://www.w3.org/1999/xlink" width="272px" height="140px" xmlns="http://www.w3.org/2000/svg">
  <g transform="matrix(1 0 0 1 -20 -65 )">
    <path d="M 21 81  A 15 15 0 0 1 36 66 L 276 66  A 15 15 0 0 1 291 81 L 291 189  A 15 15 0 0 1 276 204 L 36 204  A 15 15 0 0 1 21 189 L 21 81  Z " fill-rule="nonzero" fill="#ffffff" stroke="none" />
    <path d="M 20.5 81  A 15.5 15.5 0 0 1 36 65.5 L 276 65.5  A 15.5 15.5 0 0 1 291.5 81 L 291.5 189  A 15.5 15.5 0 0 1 276 204.5 L 36 204.5  A 15.5 15.5 0 0 1 20.5 189 L 20.5 81  Z " stroke-width="1" stroke="#f2f2f2" fill="none" stroke-opacity="0.9882352941176471" />
  </g>
</svg>