<?xml version="1.0" encoding="utf-8"?>
<svg version="1.1" xmlns:xlink="http://www.w3.org/1999/xlink" width="1150px" height="755px" xmlns="http://www.w3.org/2000/svg">
  <g transform="matrix(1 0 0 1 -19 -174 )">
    <path d="M 20 190  A 15 15 0 0 1 35 175 L 1153 175  A 15 15 0 0 1 1168 190 L 1168 913  A 15 15 0 0 1 1153 928 L 35 928  A 15 15 0 0 1 20 913 L 20 190  Z " fill-rule="nonzero" fill="#ffffff" stroke="none" />
    <path d="M 19.5 190  A 15.5 15.5 0 0 1 35 174.5 L 1153 174.5  A 15.5 15.5 0 0 1 1168.5 190 L 1168.5 913  A 15.5 15.5 0 0 1 1153 928.5 L 35 928.5  A 15.5 15.5 0 0 1 19.5 913 L 19.5 190  Z " stroke-width="1" stroke="#f2f2f2" fill="none" stroke-opacity="0.9882352941176471" />
  </g>
</svg>