<?xml version="1.0" encoding="utf-8"?>
<svg version="1.1" xmlns:xlink="http://www.w3.org/1999/xlink" width="21px" height="23px" xmlns="http://www.w3.org/2000/svg">
  <g transform="matrix(1 0 0 1 -284 -16 )">
    <path d="M 1.164391666666667 16.099999999999998  C 1.164391666666667 13.095509999999999  3.1124566666666666 10.539634999999999  5.831431666666667 9.592495  L 5.830918333333334 12.11548  C 4.436121666666667 12.910820000000001  3.497725 14.397425000000002  3.497725 16.099999999999998  C 3.497725 18.640465  5.587061666666667 20.7  8.164391666666665 20.7  C 9.8917 20.7  11.399733333333334 19.775055  12.206599999999998 18.400115  L 14.765916666666666 18.40046  C 13.804816666666667 21.08019  11.212016666666669 23  8.164391666666665 23  C 4.298396666666666 23  1.164391666666667 19.910755  1.164391666666667 16.099999999999998  Z M 13.997666666666667 17.248849999999997  L 10.497666666666666 17.25  C 8.564733333333333 17.25  6.997724999999999 15.705435000000001  6.997724999999999 13.799999999999999  L 6.997724999999999 9.200000000000001  C 6.997724999999999 7.9989514999999995  7.62034 6.941250499999999  8.564733333333333 6.3234015  C 7.62034 5.7087495  6.997724999999999 4.6510485  6.997724999999999 3.4499999999999997  C 6.997724999999999 1.5446225000000002  8.564733333333333 0  10.497666666666666 0  C 12.430716666666667 0  13.997666666666667 1.5446225000000002  13.997666666666667 3.4499999999999997  C 13.997666666666667 4.6510485  13.375133333333332 5.7087495  12.4306 6.326598499999999  C 13.375133333333332 6.941250499999999  13.997666666666667 7.9989514999999995  13.997666666666667 9.200000000000001  L 13.997666666666667 14.94885  L 15.670549999999999 14.950000000000001  C 16.427016666666667 14.950000000000001  17.132383333333333 15.311215  17.568133333333332 15.91163  L 17.671266666666664 16.06665  L 20.831416666666666 21.258325  L 18.8307 22.441675  L 15.670549999999999 17.25  L 13.997666666666667 17.248849999999997  Z M 11.664333333333332 9.200000000000001  C 11.664333333333332 8.564878  11.142016666666667 8.049999999999999  10.497666666666666 8.049999999999999  C 9.853433333333333 8.049999999999999  9.331 8.564878  9.331 9.200000000000001  L 9.331 13.799999999999999  C 9.331 14.435145  9.853433333333333 14.950000000000001  10.497666666666666 14.950000000000001  L 11.663166666666667 14.950000000000001  L 11.664333333333332 9.200000000000001  Z M 11.664333333333332 3.4499999999999997  C 11.664333333333332 2.8148780000000007  11.142016666666667 2.3000000000000003  10.497666666666666 2.3000000000000003  C 9.853433333333333 2.3000000000000003  9.331 2.8148780000000007  9.331 3.4499999999999997  C 9.331 4.085122  9.853433333333333 4.6000000000000005  10.497666666666666 4.6000000000000005  C 11.142016666666667 4.6000000000000005  11.664333333333332 4.085122  11.664333333333332 3.4499999999999997  Z " fill-rule="nonzero" fill="#6c76f4" stroke="none" transform="matrix(1 0 0 1 284 16 )" />
  </g>
</svg>