<?xml version="1.0" encoding="utf-8"?>
<svg version="1.1" xmlns:xlink="http://www.w3.org/1999/xlink" width="1150px" height="442px" xmlns="http://www.w3.org/2000/svg">
  <g transform="matrix(1 0 0 1 -20 -178 )">
    <path d="M 21 194  A 15 15 0 0 1 36 179 L 1154 179  A 15 15 0 0 1 1169 194 L 1169 604  A 15 15 0 0 1 1154 619 L 36 619  A 15 15 0 0 1 21 604 L 21 194  Z " fill-rule="nonzero" fill="#ffffff" stroke="none" />
    <path d="M 20.5 194  A 15.5 15.5 0 0 1 36 178.5 L 1154 178.5  A 15.5 15.5 0 0 1 1169.5 194 L 1169.5 604  A 15.5 15.5 0 0 1 1154 619.5 L 36 619.5  A 15.5 15.5 0 0 1 20.5 604 L 20.5 194  Z " stroke-width="1" stroke="#f2f2f2" fill="none" stroke-opacity="0.9882352941176471" />
  </g>
</svg>