<?xml version="1.0" encoding="utf-8"?>
<svg version="1.1" xmlns:xlink="http://www.w3.org/1999/xlink" width="12px" height="12px" xmlns="http://www.w3.org/2000/svg">
  <g transform="matrix(1 0 0 1 -138 0 )">
    <path d="M 144 2  C 146.24 2  148 3.76  148 6  C 148 8.24  146.24 10  144 10  C 141.76 10  140 8.24  140 6  C 140 3.76  141.76 2  144 2  Z " fill-rule="nonzero" fill="#ffffff" stroke="none" />
    <path d="M 144 1.5  C 146.52 1.5  148.5 3.4799999999999995  148.5 6  C 148.5 8.52  146.52 10.5  144 10.5  C 141.48 10.5  139.5 8.52  139.5 6  C 139.5 3.4799999999999995  141.48 1.5  144 1.5  Z " stroke-width="3" stroke="#3dd4a7" fill="none" />
  </g>
</svg>