<?xml version="1.0" encoding="utf-8"?>
<svg version="1.1" xmlns:xlink="http://www.w3.org/1999/xlink" width="15px" height="16px" xmlns="http://www.w3.org/2000/svg">
  <g transform="matrix(1 0 0 1 -1123 -154 )">
    <path d="M 0.375 4  L 7.5 0  L 14.625 4  L 14.625 12  L 7.5 16  L 0.375 12  L 0.375 4  Z M 13.125 4.838625454545454  L 7.5 1.6807272727272726  L 1.875 4.838625454545454  L 1.875 11.16138181818182  L 7.5 14.319272727272727  L 13.125 11.16138181818182  L 13.125 4.838625454545454  Z M 10.5 8  C 10.5 9.606618181818181  9.156825 10.909090909090908  7.5 10.909090909090908  C 5.843145000000001 10.909090909090908  4.5 9.606618181818181  4.5 8  C 4.5 6.3933527272727275  5.843145000000001 5.090909090909091  7.5 5.090909090909091  C 9.156825 5.090909090909091  10.5 6.3933527272727275  10.5 8  Z M 6 8  C 6 8.803345454545454  6.67155 9.454545454545455  7.5 9.454545454545455  C 8.32845 9.454545454545455  9 8.803345454545454  9 8  C 9 7.196654545454546  8.32845 6.545454545454546  7.5 6.545454545454546  C 6.67155 6.545454545454546  6 7.196654545454546  6 8  Z " fill-rule="nonzero" fill="#666666" stroke="none" transform="matrix(1 0 0 1 1123 154 )" />
  </g>
</svg>