<?xml version="1.0" encoding="utf-8"?>
<svg version="1.1" xmlns:xlink="http://www.w3.org/1999/xlink" width="15px" height="15px" xmlns="http://www.w3.org/2000/svg">
  <g transform="matrix(1 0 0 1 -926 -248 )">
    <path d="M 11.03515625 10.15625  C 11.158854166666657 10.032552083333314  11.220703125 9.8828125  11.220703125 9.70703125  C 11.220703125 9.537760416666686  11.158854166666657 9.391276041666686  11.03515625 9.267578125  L 9.267578125 7.5  L 11.03515625 5.732421875  C 11.158854166666657 5.608723958333314  11.220703125 5.462239583333314  11.220703125 5.29296875  C 11.220703125 5.1171875  11.158854166666657 4.967447916666686  11.03515625 4.84375  L 10.15625 3.9648437500000004  C 10.032552083333343 3.8411458333333144  9.8828125 3.779296875  9.70703125 3.779296875  C 9.537760416666657 3.779296875  9.391276041666657 3.8411458333333144  9.267578125 3.9648437500000004  L 7.5 5.732421875  L 5.732421875 3.9648437500000004  C 5.608723958333343 3.8411458333333144  5.462239583333343 3.779296875  5.29296875 3.779296875  C 5.1171875 3.779296875  4.967447916666657 3.8411458333333144  4.84375 3.9648437500000004  L 3.9648437500000004 4.84375  C 3.841145833333343 4.967447916666686  3.779296875 5.1171875  3.779296875 5.29296875  C 3.779296875 5.462239583333314  3.841145833333343 5.608723958333314  3.9648437500000004 5.732421875  L 5.732421875 7.5  L 3.9648437500000004 9.267578125  C 3.841145833333343 9.391276041666686  3.779296875 9.537760416666686  3.779296875 9.70703125  C 3.779296875 9.8828125  3.841145833333343 10.032552083333314  3.9648437500000004 10.15625  L 4.84375 11.03515625  C 4.967447916666657 11.158854166666686  5.1171875 11.220703125  5.29296875 11.220703125  C 5.462239583333343 11.220703125  5.608723958333343 11.158854166666686  5.732421875 11.03515625  L 7.5 9.267578125  L 9.267578125 11.03515625  C 9.391276041666657 11.158854166666686  9.537760416666657 11.220703125  9.70703125 11.220703125  C 9.8828125 11.220703125  10.032552083333343 11.158854166666686  10.15625 11.03515625  L 11.03515625 10.15625  Z M 13.994140625 3.7353515625  C 14.664713541666657 4.884440104166686  15 6.139322916666686  15 7.5  C 15 8.860677083333314  14.664713541666657 10.115559895833314  13.994140625 11.2646484375  C 13.323567708333343 12.413736979166686  12.413736979166657 13.323567708333314  11.2646484375 13.994140625  C 10.115559895833343 14.664713541666686  8.860677083333343 15  7.5 15  C 6.139322916666657 15  4.884440104166657 14.664713541666686  3.7353515625 13.994140625  C 2.586263020833343 13.323567708333314  1.6764322916666572 12.413736979166686  1.005859375 11.2646484375  C 0.3352864583333428 10.115559895833314  0 8.860677083333314  0 7.5  C 0 6.139322916666686  0.3352864583333428 4.884440104166686  1.005859375 3.7353515625  C 1.6764322916666572 2.5862630208333144  2.586263020833343 1.6764322916666288  3.7353515625 1.005859375  C 4.884440104166657 0.3352864583333144  6.139322916666657 0  7.5 0  C 8.860677083333343 0  10.115559895833343 0.3352864583333144  11.2646484375 1.005859375  C 12.413736979166657 1.6764322916666288  13.323567708333343 2.5862630208333144  13.994140625 3.7353515625  Z " fill-rule="nonzero" fill="#cccccc" stroke="none" transform="matrix(1 0 0 1 926 248 )" />
  </g>
</svg>