<?xml version="1.0" encoding="utf-8"?>
<svg version="1.1" xmlns:xlink="http://www.w3.org/1999/xlink" width="472px" height="587px" xmlns="http://www.w3.org/2000/svg">
  <defs>
    <filter x="554px" y="-6px" width="472px" height="587px" filterUnits="userSpaceOnUse" id="filter787">
      <feOffset dx="0" dy="0" in="SourceAlpha" result="shadowOffsetInner" />
      <feGaussianBlur stdDeviation="3" in="shadowOffsetInner" result="shadowGaussian" />
      <feComposite in2="shadowGaussian" operator="atop" in="SourceAlpha" result="shadowComposite" />
      <feColorMatrix type="matrix" values="0 0 0 0 0.8941176470588235  0 0 0 0 0.8941176470588235  0 0 0 0 0.8941176470588235  0 0 0 0.9882352941176471 0  " in="shadowComposite" />
    </filter>
    <g id="widget788">
      <path d="M 561 16.000000000000004  A 15 15 0 0 1 576 1 L 1004 1  A 15 15 0 0 1 1019 16 L 1019 559  A 15 15 0 0 1 1004 574 L 576 574  A 15 15 0 0 1 561 559 L 561 16  Z " fill-rule="nonzero" fill="#ffffff" stroke="none" />
      <path d="M 560.5 16.000000000000004  A 15.5 15.5 0 0 1 576 0.5 L 1004 0.5  A 15.5 15.5 0 0 1 1019.5 16 L 1019.5 559  A 15.5 15.5 0 0 1 1004 574.5 L 576 574.5  A 15.5 15.5 0 0 1 560.5 559 L 560.5 16  Z " stroke-width="1" stroke="#f2f2f2" fill="none" stroke-opacity="0.9882352941176471" />
    </g>
  </defs>
  <g transform="matrix(1 0 0 1 -554 6 )">
    <use xlink:href="#widget788" filter="url(#filter787)" />
    <use xlink:href="#widget788" />
  </g>
</svg>