<?xml version="1.0" encoding="utf-8"?>
<svg version="1.1" xmlns:xlink="http://www.w3.org/1999/xlink" width="22px" height="20px" xmlns="http://www.w3.org/2000/svg">
  <g transform="matrix(1 0 0 1 -782 -97 )">
    <path d="M 18.071 13.428900000000002  L 13.1213 8.4792  C 12.730800000000002 8.0886  12.0976 8.0886  11.707100000000002 8.4792  L 11 9.1863  C 10.2189 9.9673  8.95259 9.9673  8.17154 9.1863  C 7.39049 8.4052  7.39049 7.13888  8.17154 6.35783  L 13.8022 0.7256800000000001  C 15.906099999999999 0.24973  18.2008 0.8307500000000001  19.8388 2.46875  C 22.258200000000002 4.88811  22.3716 8.7402  20.1792 11.2939  L 18.071 13.428900000000002  Z M 2.16113 11.6611  C -0.377278 9.1227  -0.377278 5.00715  2.16113 2.46875  C 4.33452 0.29536000000000007  7.664110000000001 -0.017169999999999908  10.17 1.5311599999999999  L 6.75732 4.94362  C 5.19523 6.50572  5.19523 9.0384  6.75732 10.6005  C 8.27209 12.1152  10.6995 12.161100000000001  12.2695 10.738199999999999  L 12.414199999999997 10.6005  L 16.6568 14.8431  L 12.414199999999997 19.0858  C 11.633099999999999 19.8668  10.3668 19.8668  9.5858 19.0858  L 2.16113 11.6611  Z " fill-rule="nonzero" fill="#f7f9f9" stroke="none" transform="matrix(1 0 0 1 782 97 )" />
  </g>
</svg>