<?xml version="1.0" encoding="utf-8"?>
<svg version="1.1" xmlns:xlink="http://www.w3.org/1999/xlink" width="1150px" height="1022px" xmlns="http://www.w3.org/2000/svg">
  <g transform="matrix(1 0 0 1 -19 -228 )">
    <path d="M 20 244  A 15 15 0 0 1 35 229 L 1153 229  A 15 15 0 0 1 1168 244 L 1168 1234  A 15 15 0 0 1 1153 1249 L 35 1249  A 15 15 0 0 1 20 1234 L 20 244  Z " fill-rule="nonzero" fill="#ffffff" stroke="none" />
    <path d="M 19.5 244  A 15.5 15.5 0 0 1 35 228.5 L 1153 228.5  A 15.5 15.5 0 0 1 1168.5 244 L 1168.5 1234  A 15.5 15.5 0 0 1 1153 1249.5 L 35 1249.5  A 15.5 15.5 0 0 1 19.5 1234 L 19.5 244  Z " stroke-width="1" stroke="#f2f2f2" fill="none" stroke-opacity="0.9882352941176471" />
  </g>
</svg>