<?xml version="1.0" encoding="utf-8"?>
<svg version="1.1" xmlns:xlink="http://www.w3.org/1999/xlink" width="118px" height="52px" xmlns="http://www.w3.org/2000/svg">
  <defs>
    <filter x="132px" y="202px" width="118px" height="52px" filterUnits="userSpaceOnUse" id="filter822">
      <feOffset dx="0" dy="0" in="SourceAlpha" result="shadowOffsetInner" />
      <feGaussianBlur stdDeviation="3" in="shadowOffsetInner" result="shadowGaussian" />
      <feComposite in2="shadowGaussian" operator="atop" in="SourceAlpha" result="shadowComposite" />
      <feColorMatrix type="matrix" values="0 0 0 0 0.2392156862745098  0 0 0 0 0.8313725490196078  0 0 0 0 0.6549019607843137  0 0 0 0.4980392156862745 0  " in="shadowComposite" />
    </filter>
    <g id="widget823">
      <path d="M 138.5 212  A 3.5 3.5 0 0 1 142 208.5 L 240 208.5  A 3.5 3.5 0 0 1 243.5 212 L 243.5 244  A 3.5 3.5 0 0 1 240 247.5 L 142 247.5  A 3.5 3.5 0 0 1 138.5 244 L 138.5 212  Z " fill-rule="nonzero" fill="#ffffff" stroke="none" fill-opacity="0.09803921568627451" />
      <path d="M 138.5 212  A 3.5 3.5 0 0 1 142 208.5 L 240 208.5  A 3.5 3.5 0 0 1 243.5 212 L 243.5 244  A 3.5 3.5 0 0 1 240 247.5 L 142 247.5  A 3.5 3.5 0 0 1 138.5 244 L 138.5 212  Z " stroke-width="1" stroke="#e4e4e4" fill="none" />
    </g>
  </defs>
  <g transform="matrix(1 0 0 1 -132 -202 )">
    <use xlink:href="#widget823" filter="url(#filter822)" />
    <use xlink:href="#widget823" />
  </g>
</svg>