<?xml version="1.0" encoding="utf-8"?>
<svg version="1.1" xmlns:xlink="http://www.w3.org/1999/xlink" width="106px" height="40px" xmlns="http://www.w3.org/2000/svg">
  <g transform="matrix(1 0 0 1 -138 -208 )">
    <path d="M 138.5 212  A 3.5 3.5 0 0 1 142 208.5 L 240 208.5  A 3.5 3.5 0 0 1 243.5 212 L 243.5 244  A 3.5 3.5 0 0 1 240 247.5 L 142 247.5  A 3.5 3.5 0 0 1 138.5 244 L 138.5 212  Z " fill-rule="nonzero" fill="#ffffff" stroke="none" fill-opacity="0.09803921568627451" />
    <path d="M 138.5 212  A 3.5 3.5 0 0 1 142 208.5 L 240 208.5  A 3.5 3.5 0 0 1 243.5 212 L 243.5 244  A 3.5 3.5 0 0 1 240 247.5 L 142 247.5  A 3.5 3.5 0 0 1 138.5 244 L 138.5 212  Z " stroke-width="1" stroke="#e4e4e4" fill="none" />
  </g>
</svg>