<?xml version="1.0" encoding="utf-8"?>
<svg version="1.1" xmlns:xlink="http://www.w3.org/1999/xlink" width="12px" height="12px" xmlns="http://www.w3.org/2000/svg">
  <g transform="matrix(1 0 0 1 -232 -21 )">
    <path d="M 9 0.6000000000000001  L 9 2.4000000000000004  L 12 2.4000000000000004  L 12 3.5999999999999996  L 10.8 3.5999999999999996  L 10.8 11.399999999999999  C 10.8 11.731370849898475  10.531370849898476 12  10.2 12  L 1.7999999999999998 12  C 1.468629150101524 12  1.2000000000000002 11.731370849898475  1.2000000000000002 11.399999999999999  L 1.2000000000000002 3.5999999999999996  L 0 3.5999999999999996  L 0 2.4000000000000004  L 3 2.4000000000000004  L 3 0.6000000000000001  C 3 0.2686291501015241  3.2686291501015243 0  3.5999999999999996 0  L 8.399999999999999 0  C 8.731370849898475 0  9 0.2686291501015241  9 0.6000000000000001  Z M 9.600000000000001 10.8  L 9.600000000000001 3.5999999999999996  L 2.4000000000000004 3.5999999999999996  L 2.4000000000000004 10.8  L 9.600000000000001 10.8  Z M 4.199999999999999 9  L 4.199999999999999 5.4  L 5.4 5.4  L 5.4 9  L 4.199999999999999 9  Z M 6.6000000000000005 9  L 6.6000000000000005 5.4  L 7.800000000000001 5.4  L 7.800000000000001 9  L 6.6000000000000005 9  Z M 7.800000000000001 1.2000000000000002  L 4.199999999999999 1.2000000000000002  L 4.199999999999999 2.4000000000000004  L 7.800000000000001 2.4000000000000004  L 7.800000000000001 1.2000000000000002  Z " fill-rule="nonzero" fill="#999999" stroke="none" fill-opacity="0.9882352941176471" transform="matrix(1 0 0 1 232 21 )" />
  </g>
</svg>