<?xml version="1.0" encoding="utf-8"?>
<svg version="1.1" xmlns:xlink="http://www.w3.org/1999/xlink" width="100px" height="52px" xmlns="http://www.w3.org/2000/svg">
  <defs>
    <filter x="1056px" y="242px" width="100px" height="52px" filterUnits="userSpaceOnUse" id="filter826">
      <feOffset dx="0" dy="0" in="SourceAlpha" result="shadowOffsetInner" />
      <feGaussianBlur stdDeviation="3" in="shadowOffsetInner" result="shadowGaussian" />
      <feComposite in2="shadowGaussian" operator="atop" in="SourceAlpha" result="shadowComposite" />
      <feColorMatrix type="matrix" values="0 0 0 0 0.2392156862745098  0 0 0 0 0.8313725490196078  0 0 0 0 0.6549019607843137  0 0 0 0.4980392156862745 0  " in="shadowComposite" />
    </filter>
    <g id="widget827">
      <path d="M 1062.5 252  A 3.5 3.5 0 0 1 1066 248.5 L 1146 248.5  A 3.5 3.5 0 0 1 1149.5 252 L 1149.5 284  A 3.5 3.5 0 0 1 1146 287.5 L 1066 287.5  A 3.5 3.5 0 0 1 1062.5 284 L 1062.5 252  Z " fill-rule="nonzero" fill="#ffffff" stroke="none" fill-opacity="0.09803921568627451" />
      <path d="M 1062.5 252  A 3.5 3.5 0 0 1 1066 248.5 L 1146 248.5  A 3.5 3.5 0 0 1 1149.5 252 L 1149.5 284  A 3.5 3.5 0 0 1 1146 287.5 L 1066 287.5  A 3.5 3.5 0 0 1 1062.5 284 L 1062.5 252  Z " stroke-width="1" stroke="#e4e4e4" fill="none" />
    </g>
  </defs>
  <g transform="matrix(1 0 0 1 -1056 -242 )">
    <use xlink:href="#widget827" filter="url(#filter826)" />
    <use xlink:href="#widget827" />
  </g>
</svg>