<?xml version="1.0" encoding="utf-8"?>
<svg version="1.1" xmlns:xlink="http://www.w3.org/1999/xlink" width="15px" height="15px" xmlns="http://www.w3.org/2000/svg">
  <g transform="matrix(1 0 0 1 -78 -258 )">
    <path d="M 4.166666666666667 2.5  L 4.166666666666667 1  L 15 1  L 15 2.5  L 4.166666666666667 2.5  Z M 0 2.9166666666666665  L 0 0.41666666666666663  L 2.5 0.41666666666666663  L 2.5 2.9166666666666665  L 0 2.9166666666666665  Z M 0 8.75  L 0 6.25  L 2.5 6.25  L 2.5 8.75  L 0 8.75  Z M 0 14.583333333333334  L 0 12.083333333333334  L 2.5 12.083333333333334  L 2.5 14.583333333333334  L 0 14.583333333333334  Z M 4.166666666666667 8.333333333333334  L 4.166666666666667 6.666666666666666  L 15 6.666666666666666  L 15 8.333333333333334  L 4.166666666666667 8.333333333333334  Z M 4.166666666666667 14  L 4.166666666666667 12.5  L 15 12.5  L 15 14  L 4.166666666666667 14  Z " fill-rule="nonzero" fill="#999999" stroke="none" fill-opacity="0.9882352941176471" transform="matrix(1 0 0 1 78 258 )" />
  </g>
</svg>