<?xml version="1.0" encoding="utf-8"?>
<svg version="1.1" xmlns:xlink="http://www.w3.org/1999/xlink" width="16px" height="14px" xmlns="http://www.w3.org/2000/svg">
  <g transform="matrix(1 0 0 1 -40 -258 )">
    <path d="M 8.8 5.443666666666667  L 16 5.443666666666667  L 16 13.222222222222221  C 16 13.651788888888888  15.641839999999998 14  15.2 14  L 8.8 14  L 8.8 5.443666666666667  Z M 0 10.110333333333335  L 7.2 10.110333333333335  L 7.2 14  L 0.8 14  C 0.35817599999999994 14  0 13.651788888888888  0 13.222222222222221  L 0 10.110333333333335  Z M 0.8 0  L 7.2 0  L 7.2 8.554777777777778  L 0 8.554777777777778  L 0 0.7777777777777777  C 0 0.3482266666666666  0.35817599999999994 0  0.8 0  Z M 8.8 0  L 15.2 0  C 15.641839999999998 0  16 0.3482266666666666  16 0.7777777777777777  L 16 3.888111111111111  L 8.8 3.888111111111111  L 8.8 0  Z " fill-rule="nonzero" fill="#3dd4a7" stroke="none" transform="matrix(1 0 0 1 40 258 )" />
  </g>
</svg>