<?xml version="1.0" encoding="utf-8"?>
<svg version="1.1" xmlns:xlink="http://www.w3.org/1999/xlink" width="16px" height="16px" xmlns="http://www.w3.org/2000/svg">
  <g transform="matrix(1 0 0 1 -451 -156 )">
    <path d="M 0 6.8571428571429145  C 0 3.072000000000015  3.071999999999965 0  6.857142857142839 0  C 10.642285714285688 0  13.714285714285754 3.072000000000015  13.714285714285754 6.8571428571429145  C 13.714285714285754 10.642285714285713  10.642285714285688 13.71428571428573  6.857142857142839 13.71428571428573  C 3.071999999999965 13.71428571428573  0 10.642285714285713  0 6.8571428571429145  Z M 1.523809523809531 6.8571428571429145  C 1.523809523809531 9.803428571428563  3.91009523809526 12.190476190476197  6.857142857142839 12.190476190476197  C 9.803428571428563 12.190476190476197  12.190476190476197 9.803428571428563  12.190476190476197 6.8571428571429145  C 12.190476190476197 3.910095238095184  9.803428571428563 1.523809523809531  6.857142857142839 1.523809523809531  C 3.91009523809526 1.523809523809531  1.523809523809531 3.910095238095184  1.523809523809531 6.8571428571429145  Z M 12.244571428571412 13.321904761904786  L 13.321904761904786 12.244571428571412  L 15.477333333333313 14.399238095238111  L 14.399238095238136 15.477333333333313  L 12.244571428571412 13.321904761904786  Z " fill-rule="nonzero" fill="#fbfafa" stroke="none" fill-opacity="0.9882352941176471" transform="matrix(1 0 0 1 451 156 )" />
  </g>
</svg>