<?xml version="1.0" encoding="utf-8"?>
<svg version="1.1" xmlns:xlink="http://www.w3.org/1999/xlink" width="40px" height="40px" xmlns="http://www.w3.org/2000/svg">
  <g transform="matrix(1 0 0 1 -489 -144 )">
    <path d="M 489.5 148  A 3.5 3.5 0 0 1 493 144.5 L 525 144.5  A 3.5 3.5 0 0 1 528.5 148 L 528.5 180  A 3.5 3.5 0 0 1 525 183.5 L 493 183.5  A 3.5 3.5 0 0 1 489.5 180 L 489.5 148  Z " fill-rule="nonzero" fill="#ffffff" stroke="none" fill-opacity="0.09803921568627451" />
    <path d="M 489.5 148  A 3.5 3.5 0 0 1 493 144.5 L 525 144.5  A 3.5 3.5 0 0 1 528.5 148 L 528.5 180  A 3.5 3.5 0 0 1 525 183.5 L 493 183.5  A 3.5 3.5 0 0 1 489.5 180 L 489.5 148  Z " stroke-width="1" stroke="#3dd4a7" fill="none" />
  </g>
</svg>