<?xml version="1.0" encoding="utf-8"?>
<svg version="1.1" xmlns:xlink="http://www.w3.org/1999/xlink" width="52px" height="52px" xmlns="http://www.w3.org/2000/svg">
  <defs>
    <filter x="483px" y="138px" width="52px" height="52px" filterUnits="userSpaceOnUse" id="filter834">
      <feOffset dx="0" dy="0" in="SourceAlpha" result="shadowOffsetInner" />
      <feGaussianBlur stdDeviation="3" in="shadowOffsetInner" result="shadowGaussian" />
      <feComposite in2="shadowGaussian" operator="atop" in="SourceAlpha" result="shadowComposite" />
      <feColorMatrix type="matrix" values="0 0 0 0 0.2392156862745098  0 0 0 0 0.8313725490196078  0 0 0 0 0.6549019607843137  0 0 0 0.4980392156862745 0  " in="shadowComposite" />
    </filter>
    <g id="widget835">
      <path d="M 489.5 148  A 3.5 3.5 0 0 1 493 144.5 L 525 144.5  A 3.5 3.5 0 0 1 528.5 148 L 528.5 180  A 3.5 3.5 0 0 1 525 183.5 L 493 183.5  A 3.5 3.5 0 0 1 489.5 180 L 489.5 148  Z " fill-rule="nonzero" fill="#ffffff" stroke="none" fill-opacity="0.09803921568627451" />
      <path d="M 489.5 148  A 3.5 3.5 0 0 1 493 144.5 L 525 144.5  A 3.5 3.5 0 0 1 528.5 148 L 528.5 180  A 3.5 3.5 0 0 1 525 183.5 L 493 183.5  A 3.5 3.5 0 0 1 489.5 180 L 489.5 148  Z " stroke-width="1" stroke="#e4e4e4" fill="none" />
    </g>
  </defs>
  <g transform="matrix(1 0 0 1 -483 -138 )">
    <use xlink:href="#widget835" filter="url(#filter834)" />
    <use xlink:href="#widget835" />
  </g>
</svg>