<?xml version="1.0" encoding="utf-8"?>
<svg version="1.1" xmlns:xlink="http://www.w3.org/1999/xlink" width="15px" height="16px" xmlns="http://www.w3.org/2000/svg">
  <g transform="matrix(1 0 0 1 -501 -156 )">
    <path d="M 8.68421052631579 4.79964  L 3.0224447368421052 4.79964  L 5.024178947368421 6.828072000000001  L 3.9076973684210525 7.959439999999999  L 0 3.9996400000000003  L 3.9076973684210525 0.039840000000000056  L 5.024178947368421 1.171216  L 3.0224447368421052 3.19964  L 8.68421052631579 3.19964  C 12.172342105263157 3.19964  15 6.065016  15 9.59968  C 15 13.13424  12.172342105263157 15.999680000000001  8.68421052631579 15.999680000000001  L 1.5789473684210527 15.999680000000001  L 1.5789473684210527 14.39968  L 8.68421052631579 14.39968  C 11.300289473684211 14.39968  13.421052631578947 12.25064  13.421052631578947 9.59968  C 13.421052631578947 6.948672  11.300289473684211 4.79964  8.68421052631579 4.79964  Z " fill-rule="nonzero" fill="#3dd4a7" stroke="none" transform="matrix(1 0 0 1 501 156 )" />
  </g>
</svg>