<?xml version="1.0" encoding="utf-8"?>
<svg version="1.1" xmlns:xlink="http://www.w3.org/1999/xlink" width="820px" height="155px" xmlns="http://www.w3.org/2000/svg">
  <defs>
    <linearGradient gradientUnits="userSpaceOnUse" x1="410" y1="155" x2="410" y2="0" id="LinearGradient878">
      <stop id="Stop879" stop-color="#28d094" stop-opacity="0" offset="0" />
      <stop id="Stop880" stop-color="#28d094" stop-opacity="0.5098039215686274" offset="1" />
    </linearGradient>
  </defs>
  <g>
    <path d="M 0 135.12903225585512  L 0 155  L 820 155  L 820 77.49999999999997  C 820 77.49999999999997  795.4404694694643 61.49418130250277  751.6666666666666 44.716129032258074  C 690.7672474929032 21.374002630125048  709.0940326607131 21.06695294443205  629.2361111111112 6.961290322580645  C 591.5212997378579 0.2995541446932819  594.983705731193 0.4804344562722278  552.3611111111112 1  C 492.769097526798 1.7264212142819346  482.12962962962956 8.286021505376347  447.01388888888886 11.929032258064517  C 420.43981481481484 15.572043010752687  393.86574074074076 19.215053763440864  367.2916666666667 22.858064516129033  C 309.3981481481481 28.156989247311824  251.50462962962962 33.45591397849462  193.6111111111111 38.75483870967741  C 154.69907407407405 42.16989247311828  136.3878603641265 39.305132652702426  76.875 48.99999999999999  C 29.12361919511806 56.778878375549866  0 68.56129032258065  0 68.56129032258065  L 0 135.12903225585512  Z " fill-rule="nonzero" fill="url(#LinearGradient878)" stroke="none" />
  </g>
</svg>