<?xml version="1.0" encoding="utf-8"?>
<svg version="1.1" xmlns:xlink="http://www.w3.org/1999/xlink" width="890px" height="832px" xmlns="http://www.w3.org/2000/svg">
  <g transform="matrix(1 0 0 1 -280 -119 )">
    <path d="M 281 135  A 15 15 0 0 1 296 120 L 1154 120  A 15 15 0 0 1 1169 135 L 1169 935  A 15 15 0 0 1 1154 950 L 296 950  A 15 15 0 0 1 281 935 L 281 135  Z " fill-rule="nonzero" fill="#ffffff" stroke="none" />
    <path d="M 280.5 135  A 15.5 15.5 0 0 1 296 119.5 L 1154 119.5  A 15.5 15.5 0 0 1 1169.5 135 L 1169.5 935  A 15.5 15.5 0 0 1 1154 950.5 L 296 950.5  A 15.5 15.5 0 0 1 280.5 935 L 280.5 135  Z " stroke-width="1" stroke="#f2f2f2" fill="none" stroke-opacity="0.9882352941176471" />
  </g>
</svg>