<?xml version="1.0" encoding="utf-8"?>
<svg version="1.1" xmlns:xlink="http://www.w3.org/1999/xlink" width="16px" height="14px" xmlns="http://www.w3.org/2000/svg">
  <g transform="matrix(1 0 0 1 -285 -15 )">
    <path d="M 0 13.222222222222221  L 0 0.7777777777777777  C 0 0.3482266666666666  0.35817599999999994 0  0.8 0  L 15.2 0  C 15.641839999999998 0  16 0.3482266666666666  16 0.7777777777777777  L 16 13.222222222222221  C 16 13.651788888888888  15.641839999999998 14  15.2 14  L 0.8 14  C 0.35817599999999994 14  0 13.651788888888888  0 13.222222222222221  Z M 14.4 1.5555555555555554  L 1.6 1.5555555555555554  L 1.6 12.444444444444443  L 14.4 12.444444444444443  L 14.4 1.5555555555555554  Z M 3.2 4.666666666666666  L 3.2 3.1111111111111107  L 4.8 3.1111111111111107  L 4.8 4.666666666666666  L 3.2 4.666666666666666  Z M 4.8 7.777777777777779  L 4.8 6.222222222222221  L 3.2 6.222222222222221  L 3.2 7.777777777777779  L 4.8 7.777777777777779  Z M 3.2 10.88888888888889  L 3.2 9.333333333333332  L 4.8 9.333333333333332  L 4.8 10.88888888888889  L 3.2 10.88888888888889  Z M 12.8 4.666666666666666  L 12.8 3.1111111111111107  L 6.4 3.1111111111111107  L 6.4 4.666666666666666  L 12.8 4.666666666666666  Z M 6.4 10.88888888888889  L 6.4 9.333333333333332  L 12.8 9.333333333333332  L 12.8 10.88888888888889  L 6.4 10.88888888888889  Z M 12.8 7.777777777777779  L 12.8 6.222222222222221  L 6.4 6.222222222222221  L 6.4 7.777777777777779  L 12.8 7.777777777777779  Z " fill-rule="nonzero" fill="#cccccc" stroke="none" fill-opacity="0.9882352941176471" transform="matrix(1 0 0 1 285 15 )" />
  </g>
</svg>